<svg width="874" height="323" viewBox="0 0 874 323" fill="none" xmlns="http://www.w3.org/2000/svg">
<path d="M13.86 293.321L0 268.001H5.82L15.66 286.361L16.68 290.021H16.74L17.82 286.241L27.24 268.001H32.58L18.84 293.261V310.001H13.86V293.321Z" fill="#666666"/>
<path d="M33.8194 295.001C33.8194 289.921 34.9394 286.041 37.1794 283.361C39.4594 280.641 42.7194 279.281 46.9594 279.281C49.1994 279.281 51.1394 279.661 52.7794 280.421C54.4594 281.141 55.8394 282.201 56.9194 283.601C57.9994 284.961 58.7994 286.621 59.3194 288.581C59.8394 290.501 60.0994 292.641 60.0994 295.001C60.0994 300.081 58.9594 303.981 56.6794 306.701C54.4394 309.381 51.1994 310.721 46.9594 310.721C44.7194 310.721 42.7594 310.361 41.0794 309.641C39.4394 308.881 38.0794 307.821 36.9994 306.461C35.9194 305.061 35.1194 303.401 34.5994 301.481C34.0794 299.521 33.8194 297.361 33.8194 295.001ZM38.7994 295.001C38.7994 296.521 38.9394 297.981 39.2194 299.381C39.5394 300.781 40.0194 302.001 40.6594 303.041C41.2994 304.081 42.1394 304.921 43.1794 305.561C44.2194 306.201 45.4794 306.521 46.9594 306.521C52.3994 306.561 55.1194 302.721 55.1194 295.001C55.1194 293.441 54.9594 291.961 54.6394 290.561C54.3594 289.161 53.8994 287.941 53.2594 286.901C52.6194 285.861 51.7794 285.041 50.7394 284.441C49.6994 283.801 48.4394 283.481 46.9594 283.481C41.5194 283.441 38.7994 287.281 38.7994 295.001Z" fill="#666666"/>
<path d="M74.9873 280.001V297.101C74.9873 298.661 75.0673 300.041 75.2273 301.241C75.4273 302.401 75.7473 303.381 76.1873 304.181C76.6273 304.941 77.2273 305.521 77.9873 305.921C78.7473 306.321 79.7073 306.521 80.8673 306.521C81.9473 306.521 82.9073 306.361 83.7473 306.041C84.5873 305.681 85.3273 305.201 85.9673 304.601C86.6473 304.001 87.2273 303.321 87.7073 302.561C88.2273 301.761 88.6473 300.921 88.9673 300.041V280.001H93.7673V301.481C93.7673 302.921 93.8073 304.421 93.8873 305.981C94.0073 307.501 94.1873 308.841 94.4273 310.001H91.1273L89.9273 305.261H89.6273C88.7073 306.821 87.4673 308.121 85.9073 309.161C84.3473 310.201 82.3673 310.721 79.9673 310.721C78.3673 310.721 76.9473 310.521 75.7073 310.121C74.5073 309.761 73.4873 309.101 72.6473 308.141C71.8473 307.181 71.2273 305.901 70.7873 304.301C70.3873 302.661 70.1873 300.601 70.1873 298.121V280.001H74.9873Z" fill="#666666"/>
<path d="M120.171 284.621C118.971 284.221 117.831 284.021 116.751 284.021C115.031 284.021 113.671 284.501 112.671 285.461C111.671 286.381 111.051 287.561 110.811 289.001V310.001H106.011V280.001H109.371L110.271 283.661H110.511C111.271 282.301 112.171 281.261 113.211 280.541C114.291 279.781 115.651 279.401 117.291 279.401C118.451 279.401 119.751 279.601 121.191 280.001L120.171 284.621Z" fill="#666666"/>
<path d="M166.924 298.361H151.444L147.244 310.001H142.324L158.224 267.341H160.504L176.464 310.001H171.244L166.924 298.361ZM153.064 294.041H165.424L160.744 281.261L159.244 274.901H159.184L157.684 281.381L153.064 294.041Z" fill="#666666"/>
<path d="M189.902 302.621C189.902 304.021 190.142 305.021 190.622 305.621C191.102 306.221 191.782 306.521 192.662 306.521C193.182 306.521 193.742 306.481 194.342 306.401C194.942 306.321 195.622 306.141 196.382 305.861L196.922 309.641C196.282 309.961 195.382 310.221 194.222 310.421C193.102 310.621 192.122 310.721 191.282 310.721C189.482 310.721 188.002 310.221 186.842 309.221C185.682 308.181 185.102 306.441 185.102 304.001V268.001H189.902V302.621Z" fill="#666666"/>
<path d="M210.421 302.621C210.421 304.021 210.661 305.021 211.141 305.621C211.621 306.221 212.301 306.521 213.181 306.521C213.701 306.521 214.261 306.481 214.861 306.401C215.461 306.321 216.141 306.141 216.901 305.861L217.441 309.641C216.801 309.961 215.901 310.221 214.741 310.421C213.621 310.621 212.641 310.721 211.801 310.721C210.001 310.721 208.521 310.221 207.361 309.221C206.201 308.181 205.621 306.441 205.621 304.001V268.001H210.421V302.621Z" fill="#666666"/>
<path d="M234.421 299.441L236.101 305.201H236.401L237.721 299.381L243.541 280.001H248.401L239.521 306.941C238.841 308.901 238.161 310.801 237.481 312.641C236.841 314.481 236.121 316.121 235.321 317.561C234.521 319.001 233.621 320.141 232.621 320.981C231.621 321.861 230.461 322.301 229.141 322.301C227.701 322.301 226.521 322.101 225.601 321.701L226.441 317.561C226.961 317.761 227.461 317.861 227.941 317.861C229.061 317.861 230.141 317.261 231.181 316.061C232.221 314.901 233.081 312.881 233.761 310.001L221.701 280.001H227.221L234.421 299.441Z" fill="#666666"/>
<path d="M274.398 280.001H279.198V310.001H274.398V280.001ZM273.378 270.881C273.378 269.961 273.678 269.181 274.278 268.541C274.918 267.861 275.718 267.521 276.678 267.521C277.638 267.521 278.458 267.861 279.138 268.541C279.818 269.181 280.158 269.961 280.158 270.881C280.158 271.801 279.818 272.561 279.138 273.161C278.458 273.761 277.638 274.061 276.678 274.061C275.718 274.061 274.918 273.761 274.278 273.161C273.678 272.561 273.378 271.801 273.378 270.881Z" fill="#666666"/>
<path d="M311.693 310.001V292.901C311.693 289.781 311.233 287.441 310.313 285.881C309.433 284.281 307.793 283.481 305.393 283.481C303.273 283.481 301.513 284.061 300.113 285.221C298.753 286.341 297.793 287.761 297.233 289.481V310.001H292.433V280.001H295.793L296.693 283.661H296.933C297.893 282.381 299.173 281.341 300.773 280.541C302.413 279.701 304.353 279.281 306.593 279.281C308.233 279.281 309.673 279.481 310.913 279.881C312.153 280.241 313.173 280.901 313.973 281.861C314.813 282.821 315.433 284.121 315.833 285.761C316.273 287.361 316.493 289.401 316.493 291.881V310.001H311.693Z" fill="#666666"/>
<path d="M347.722 268.421C349.242 268.061 350.882 267.821 352.642 267.701C354.402 267.581 356.142 267.521 357.862 267.521C359.702 267.521 361.562 267.701 363.442 268.061C365.362 268.421 367.102 269.081 368.662 270.041C370.222 271.001 371.482 272.321 372.442 274.001C373.442 275.681 373.942 277.821 373.942 280.421C373.942 282.981 373.482 285.141 372.562 286.901C371.642 288.661 370.422 290.101 368.902 291.221C367.382 292.301 365.642 293.081 363.682 293.561C361.722 294.041 359.702 294.281 357.622 294.281C357.422 294.281 357.082 294.281 356.602 294.281C356.162 294.281 355.682 294.281 355.162 294.281C354.682 294.241 354.202 294.201 353.722 294.161C353.242 294.121 352.902 294.081 352.702 294.041V310.001H347.722V268.421ZM357.982 271.841C356.942 271.841 355.942 271.861 354.982 271.901C354.022 271.941 353.262 272.041 352.702 272.201V289.601C352.902 289.681 353.222 289.741 353.662 289.781C354.102 289.781 354.562 289.801 355.042 289.841C355.522 289.841 355.982 289.841 356.422 289.841C356.862 289.841 357.182 289.841 357.382 289.841C358.742 289.841 360.082 289.721 361.402 289.481C362.762 289.201 363.982 288.721 365.062 288.041C366.142 287.361 367.002 286.401 367.642 285.161C368.322 283.921 368.662 282.341 368.662 280.421C368.662 278.781 368.342 277.421 367.702 276.341C367.102 275.221 366.282 274.341 365.242 273.701C364.242 273.021 363.102 272.541 361.822 272.261C360.542 271.981 359.262 271.841 357.982 271.841Z" fill="#666666"/>
<path d="M403.489 307.601C402.289 308.561 400.769 309.321 398.929 309.881C397.129 310.441 395.209 310.721 393.169 310.721C390.889 310.721 388.909 310.361 387.229 309.641C385.549 308.881 384.169 307.821 383.089 306.461C382.009 305.061 381.209 303.401 380.689 301.481C380.169 299.561 379.909 297.401 379.909 295.001C379.909 289.881 381.049 285.981 383.329 283.301C385.609 280.621 388.869 279.281 393.109 279.281C394.469 279.281 395.829 279.441 397.189 279.761C398.549 280.041 399.769 280.601 400.849 281.441C401.929 282.281 402.809 283.481 403.489 285.041C404.169 286.561 404.509 288.581 404.509 291.101C404.509 292.421 404.389 293.881 404.149 295.481H384.889C384.889 297.241 385.069 298.801 385.429 300.161C385.789 301.521 386.349 302.681 387.109 303.641C387.869 304.561 388.849 305.281 390.049 305.801C391.289 306.281 392.789 306.521 394.549 306.521C395.909 306.521 397.269 306.281 398.629 305.801C399.989 305.321 401.009 304.761 401.689 304.121L403.489 307.601ZM393.169 283.481C390.809 283.481 388.909 284.101 387.469 285.341C386.069 286.581 385.229 288.701 384.949 291.701H399.829C399.829 288.661 399.249 286.541 398.089 285.341C396.929 284.101 395.289 283.481 393.169 283.481Z" fill="#666666"/>
<path d="M411.098 280.001H415.778V274.061L420.578 272.681V280.001H428.738V284.201H420.578V300.821C420.578 302.901 420.838 304.381 421.358 305.261C421.878 306.101 422.758 306.521 423.998 306.521C425.038 306.521 425.918 306.421 426.638 306.221C427.358 305.981 428.158 305.681 429.038 305.321L430.118 308.981C429.038 309.501 427.858 309.921 426.578 310.241C425.298 310.561 423.918 310.721 422.438 310.721C419.998 310.721 418.278 310.041 417.278 308.681C416.278 307.281 415.778 304.961 415.778 301.721V284.201H411.098V280.001Z" fill="#666666"/>
<path d="M457.866 268.421C459.386 268.061 461.026 267.821 462.786 267.701C464.546 267.581 466.286 267.521 468.006 267.521C469.846 267.521 471.706 267.701 473.586 268.061C475.506 268.421 477.246 269.081 478.806 270.041C480.366 271.001 481.626 272.321 482.586 274.001C483.586 275.681 484.086 277.821 484.086 280.421C484.086 282.981 483.626 285.141 482.706 286.901C481.786 288.661 480.566 290.101 479.046 291.221C477.526 292.301 475.786 293.081 473.826 293.561C471.866 294.041 469.846 294.281 467.766 294.281C467.566 294.281 467.226 294.281 466.746 294.281C466.306 294.281 465.826 294.281 465.306 294.281C464.826 294.241 464.346 294.201 463.866 294.161C463.386 294.121 463.046 294.081 462.846 294.041V310.001H457.866V268.421ZM468.126 271.841C467.086 271.841 466.086 271.861 465.126 271.901C464.166 271.941 463.406 272.041 462.846 272.201V289.601C463.046 289.681 463.366 289.741 463.806 289.781C464.246 289.781 464.706 289.801 465.186 289.841C465.666 289.841 466.126 289.841 466.566 289.841C467.006 289.841 467.326 289.841 467.526 289.841C468.886 289.841 470.226 289.721 471.546 289.481C472.906 289.201 474.126 288.721 475.206 288.041C476.286 287.361 477.146 286.401 477.786 285.161C478.466 283.921 478.806 282.341 478.806 280.421C478.806 278.781 478.486 277.421 477.846 276.341C477.246 275.221 476.426 274.341 475.386 273.701C474.386 273.021 473.246 272.541 471.966 272.261C470.686 271.981 469.406 271.841 468.126 271.841Z" fill="#666666"/>
<path d="M513.162 310.001V292.901C513.162 291.341 513.062 289.981 512.862 288.821C512.702 287.621 512.382 286.641 511.902 285.881C511.422 285.081 510.762 284.481 509.922 284.081C509.122 283.681 508.062 283.481 506.742 283.481C504.862 283.481 503.162 284.101 501.642 285.341C500.122 286.541 499.142 288.101 498.702 290.021V310.001H493.902V268.001H498.702V283.361H498.942C499.982 282.121 501.222 281.141 502.662 280.421C504.142 279.661 505.962 279.281 508.122 279.281C509.802 279.281 511.262 279.481 512.502 279.881C513.742 280.241 514.762 280.901 515.562 281.861C516.402 282.821 517.002 284.121 517.362 285.761C517.762 287.361 517.962 289.401 517.962 291.881V310.001H513.162Z" fill="#666666"/>
<path d="M529.234 282.221C530.754 281.301 532.514 280.621 534.514 280.181C536.554 279.741 538.674 279.521 540.874 279.521C542.954 279.521 544.614 279.801 545.854 280.361C547.134 280.921 548.094 281.661 548.734 282.581C549.414 283.461 549.854 284.441 550.054 285.521C550.294 286.601 550.414 287.681 550.414 288.761C550.414 291.161 550.354 293.501 550.234 295.781C550.114 298.061 550.054 300.221 550.054 302.261C550.054 303.741 550.114 305.141 550.234 306.461C550.354 307.781 550.574 309.001 550.894 310.121H547.354L546.094 305.921H545.794C545.434 306.481 544.974 307.041 544.414 307.601C543.894 308.121 543.254 308.601 542.494 309.041C541.734 309.441 540.854 309.781 539.854 310.061C538.854 310.341 537.714 310.481 536.434 310.481C535.154 310.481 533.954 310.281 532.834 309.881C531.754 309.481 530.814 308.921 530.014 308.201C529.214 307.441 528.574 306.541 528.094 305.501C527.654 304.461 527.434 303.281 527.434 301.961C527.434 300.201 527.794 298.741 528.514 297.581C529.234 296.381 530.234 295.441 531.514 294.761C532.834 294.041 534.394 293.541 536.194 293.261C538.034 292.941 540.054 292.781 542.254 292.781C542.814 292.781 543.354 292.781 543.874 292.781C544.434 292.781 544.994 292.821 545.554 292.901C545.674 291.701 545.734 290.621 545.734 289.661C545.734 287.461 545.294 285.921 544.414 285.041C543.534 284.161 541.934 283.721 539.614 283.721C538.934 283.721 538.194 283.781 537.394 283.901C536.634 283.981 535.834 284.121 534.994 284.321C534.194 284.481 533.414 284.701 532.654 284.981C531.934 285.221 531.294 285.501 530.734 285.821L529.234 282.221ZM537.754 306.281C538.874 306.281 539.874 306.141 540.754 305.861C541.634 305.541 542.394 305.161 543.034 304.721C543.674 304.241 544.194 303.721 544.594 303.161C545.034 302.601 545.354 302.061 545.554 301.541V296.561C544.994 296.521 544.414 296.501 543.814 296.501C543.254 296.461 542.694 296.441 542.134 296.441C540.894 296.441 539.674 296.521 538.474 296.681C537.314 296.801 536.274 297.061 535.354 297.461C534.474 297.821 533.754 298.341 533.194 299.021C532.674 299.661 532.414 300.481 532.414 301.481C532.414 302.881 532.914 304.041 533.914 304.961C534.914 305.841 536.194 306.281 537.754 306.281Z" fill="#666666"/>
<path d="M576.64 284.621C575.44 284.221 574.3 284.021 573.22 284.021C571.5 284.021 570.14 284.501 569.14 285.461C568.14 286.381 567.52 287.561 567.28 289.001V310.001H562.48V280.001H565.84L566.74 283.661H566.98C567.74 282.301 568.64 281.261 569.68 280.541C570.76 279.781 572.12 279.401 573.76 279.401C574.92 279.401 576.22 279.601 577.66 280.001L576.64 284.621Z" fill="#666666"/>
<path d="M603.451 310.001V293.021C603.451 291.421 603.371 290.041 603.211 288.881C603.091 287.681 602.83 286.681 602.43 285.881C602.03 285.081 601.45 284.481 600.69 284.081C599.97 283.681 599.01 283.481 597.81 283.481C595.97 283.481 594.43 284.041 593.19 285.161C591.99 286.281 591.15 287.681 590.67 289.361V310.001H585.87V280.001H589.23L590.13 283.661H590.37C591.45 282.381 592.691 281.341 594.091 280.541C595.531 279.701 597.39 279.281 599.67 279.281C601.59 279.281 603.15 279.661 604.35 280.421C605.59 281.141 606.55 282.421 607.23 284.261C608.15 282.701 609.41 281.481 611.01 280.601C612.65 279.721 614.491 279.281 616.531 279.281C618.211 279.281 619.63 279.481 620.79 279.881C621.95 280.241 622.91 280.901 623.67 281.861C624.43 282.821 624.97 284.121 625.29 285.761C625.65 287.401 625.831 289.481 625.831 292.001V310.001H621.031V291.941C621.031 290.501 620.95 289.261 620.79 288.221C620.67 287.141 620.39 286.261 619.951 285.581C619.551 284.861 618.971 284.341 618.211 284.021C617.491 283.661 616.531 283.481 615.331 283.481C613.331 283.481 611.771 284.041 610.651 285.161C609.531 286.281 608.73 287.881 608.25 289.961V310.001H603.451Z" fill="#666666"/>
<path d="M637.082 282.221C638.602 281.301 640.362 280.621 642.362 280.181C644.402 279.741 646.522 279.521 648.722 279.521C650.802 279.521 652.462 279.801 653.702 280.361C654.982 280.921 655.942 281.661 656.582 282.581C657.262 283.461 657.702 284.441 657.902 285.521C658.142 286.601 658.262 287.681 658.262 288.761C658.262 291.161 658.202 293.501 658.082 295.781C657.962 298.061 657.902 300.221 657.902 302.261C657.902 303.741 657.962 305.141 658.082 306.461C658.202 307.781 658.422 309.001 658.742 310.121H655.202L653.942 305.921H653.642C653.282 306.481 652.822 307.041 652.262 307.601C651.742 308.121 651.102 308.601 650.342 309.041C649.582 309.441 648.702 309.781 647.702 310.061C646.702 310.341 645.562 310.481 644.282 310.481C643.002 310.481 641.802 310.281 640.682 309.881C639.602 309.481 638.662 308.921 637.862 308.201C637.062 307.441 636.422 306.541 635.942 305.501C635.502 304.461 635.282 303.281 635.282 301.961C635.282 300.201 635.642 298.741 636.362 297.581C637.082 296.381 638.082 295.441 639.362 294.761C640.682 294.041 642.242 293.541 644.042 293.261C645.882 292.941 647.902 292.781 650.102 292.781C650.662 292.781 651.202 292.781 651.722 292.781C652.282 292.781 652.842 292.821 653.402 292.901C653.522 291.701 653.582 290.621 653.582 289.661C653.582 287.461 653.142 285.921 652.262 285.041C651.382 284.161 649.782 283.721 647.462 283.721C646.782 283.721 646.042 283.781 645.242 283.901C644.482 283.981 643.682 284.121 642.842 284.321C642.042 284.481 641.262 284.701 640.502 284.981C639.782 285.221 639.142 285.501 638.582 285.821L637.082 282.221ZM645.602 306.281C646.722 306.281 647.722 306.141 648.602 305.861C649.482 305.541 650.242 305.161 650.882 304.721C651.522 304.241 652.042 303.721 652.442 303.161C652.882 302.601 653.202 302.061 653.402 301.541V296.561C652.842 296.521 652.262 296.501 651.662 296.501C651.102 296.461 650.542 296.441 649.982 296.441C648.742 296.441 647.522 296.521 646.322 296.681C645.162 296.801 644.122 297.061 643.202 297.461C642.322 297.821 641.602 298.341 641.042 299.021C640.522 299.661 640.262 300.481 640.262 301.481C640.262 302.881 640.762 304.041 641.762 304.961C642.762 305.841 644.042 306.281 645.602 306.281Z" fill="#666666"/>
<path d="M690.788 308.021C689.588 308.901 688.168 309.561 686.528 310.001C684.888 310.481 683.167 310.721 681.367 310.721C679.047 310.721 677.088 310.361 675.488 309.641C673.888 308.881 672.568 307.821 671.528 306.461C670.528 305.061 669.787 303.401 669.307 301.481C668.867 299.521 668.648 297.361 668.648 295.001C668.648 289.921 669.768 286.041 672.008 283.361C674.248 280.641 677.468 279.281 681.668 279.281C683.588 279.281 685.208 279.441 686.528 279.761C687.888 280.041 689.107 280.461 690.188 281.021L688.807 285.161C687.887 284.641 686.867 284.241 685.747 283.961C684.627 283.641 683.428 283.481 682.148 283.481C676.468 283.481 673.628 287.321 673.628 295.001C673.628 296.521 673.768 297.981 674.048 299.381C674.368 300.741 674.868 301.961 675.548 303.041C676.268 304.081 677.187 304.921 678.307 305.561C679.467 306.201 680.888 306.521 682.568 306.521C684.008 306.521 685.288 306.301 686.408 305.861C687.568 305.421 688.508 304.921 689.228 304.361L690.788 308.021Z" fill="#666666"/>
<path d="M708.515 299.441L710.195 305.201H710.495L711.815 299.381L717.635 280.001H722.495L713.615 306.941C712.935 308.901 712.255 310.801 711.575 312.641C710.935 314.481 710.215 316.121 709.415 317.561C708.615 319.001 707.715 320.141 706.715 320.981C705.715 321.861 704.555 322.301 703.235 322.301C701.795 322.301 700.615 322.101 699.695 321.701L700.535 317.561C701.055 317.761 701.555 317.861 702.035 317.861C703.155 317.861 704.235 317.261 705.275 316.061C706.315 314.901 707.175 312.881 707.855 310.001L695.795 280.001H701.315L708.515 299.441Z" fill="#666666"/>
<path d="M774.832 308.261C773.632 309.181 772.112 309.821 770.272 310.181C768.432 310.541 766.472 310.721 764.392 310.721C761.872 310.721 759.512 310.301 757.312 309.461C755.112 308.581 753.192 307.261 751.552 305.501C749.912 303.741 748.612 301.501 747.652 298.781C746.692 296.021 746.212 292.761 746.212 289.001C746.212 285.081 746.732 281.761 747.772 279.041C748.852 276.281 750.252 274.041 751.972 272.321C753.732 270.561 755.692 269.281 757.852 268.481C760.012 267.681 762.212 267.281 764.452 267.281C766.852 267.281 768.812 267.421 770.332 267.701C771.852 267.941 773.152 268.281 774.232 268.721L773.032 273.101C771.112 272.181 768.372 271.721 764.812 271.721C763.172 271.721 761.552 272.021 759.952 272.621C758.352 273.221 756.912 274.201 755.632 275.561C754.392 276.921 753.392 278.701 752.632 280.901C751.872 283.101 751.492 285.801 751.492 289.001C751.492 291.881 751.852 294.401 752.572 296.561C753.292 298.721 754.272 300.521 755.512 301.961C756.792 303.401 758.272 304.481 759.952 305.201C761.672 305.921 763.532 306.281 765.532 306.281C767.332 306.281 768.892 306.101 770.212 305.741C771.572 305.381 772.712 304.921 773.632 304.361L774.832 308.261Z" fill="#666666"/>
<path d="M783.273 282.221C784.793 281.301 786.553 280.621 788.553 280.181C790.593 279.741 792.713 279.521 794.913 279.521C796.993 279.521 798.653 279.801 799.893 280.361C801.173 280.921 802.133 281.661 802.773 282.581C803.453 283.461 803.893 284.441 804.093 285.521C804.333 286.601 804.453 287.681 804.453 288.761C804.453 291.161 804.393 293.501 804.273 295.781C804.153 298.061 804.093 300.221 804.093 302.261C804.093 303.741 804.153 305.141 804.273 306.461C804.393 307.781 804.613 309.001 804.933 310.121H801.393L800.133 305.921H799.833C799.473 306.481 799.013 307.041 798.453 307.601C797.933 308.121 797.293 308.601 796.533 309.041C795.773 309.441 794.893 309.781 793.893 310.061C792.893 310.341 791.753 310.481 790.473 310.481C789.193 310.481 787.993 310.281 786.873 309.881C785.793 309.481 784.853 308.921 784.053 308.201C783.253 307.441 782.613 306.541 782.133 305.501C781.693 304.461 781.473 303.281 781.473 301.961C781.473 300.201 781.833 298.741 782.553 297.581C783.273 296.381 784.273 295.441 785.553 294.761C786.873 294.041 788.433 293.541 790.233 293.261C792.073 292.941 794.093 292.781 796.293 292.781C796.853 292.781 797.393 292.781 797.913 292.781C798.473 292.781 799.033 292.821 799.593 292.901C799.713 291.701 799.773 290.621 799.773 289.661C799.773 287.461 799.333 285.921 798.453 285.041C797.573 284.161 795.973 283.721 793.653 283.721C792.973 283.721 792.233 283.781 791.433 283.901C790.673 283.981 789.873 284.121 789.033 284.321C788.233 284.481 787.453 284.701 786.693 284.981C785.973 285.221 785.333 285.501 784.773 285.821L783.273 282.221ZM791.793 306.281C792.913 306.281 793.913 306.141 794.793 305.861C795.673 305.541 796.433 305.161 797.073 304.721C797.713 304.241 798.233 303.721 798.633 303.161C799.073 302.601 799.393 302.061 799.593 301.541V296.561C799.033 296.521 798.453 296.501 797.853 296.501C797.293 296.461 796.733 296.441 796.173 296.441C794.933 296.441 793.713 296.521 792.513 296.681C791.353 296.801 790.313 297.061 789.393 297.461C788.513 297.821 787.793 298.341 787.233 299.021C786.713 299.661 786.453 300.481 786.453 301.481C786.453 302.881 786.953 304.041 787.953 304.961C788.953 305.841 790.233 306.281 791.793 306.281Z" fill="#666666"/>
<path d="M830.679 284.621C829.479 284.221 828.339 284.021 827.259 284.021C825.539 284.021 824.179 284.501 823.179 285.461C822.179 286.381 821.559 287.561 821.319 289.001V310.001H816.519V280.001H819.879L820.779 283.661H821.019C821.779 282.301 822.679 281.261 823.719 280.541C824.799 279.781 826.159 279.401 827.799 279.401C828.959 279.401 830.259 279.601 831.699 280.001L830.679 284.621Z" fill="#666666"/>
<path d="M861.81 307.601C860.61 308.561 859.09 309.321 857.25 309.881C855.45 310.441 853.53 310.721 851.49 310.721C849.21 310.721 847.23 310.361 845.55 309.641C843.87 308.881 842.49 307.821 841.41 306.461C840.33 305.061 839.53 303.401 839.01 301.481C838.49 299.561 838.23 297.401 838.23 295.001C838.23 289.881 839.37 285.981 841.65 283.301C843.93 280.621 847.19 279.281 851.43 279.281C852.79 279.281 854.15 279.441 855.51 279.761C856.87 280.041 858.09 280.601 859.17 281.441C860.25 282.281 861.13 283.481 861.81 285.041C862.49 286.561 862.83 288.581 862.83 291.101C862.83 292.421 862.71 293.881 862.47 295.481H843.21C843.21 297.241 843.39 298.801 843.75 300.161C844.11 301.521 844.67 302.681 845.43 303.641C846.19 304.561 847.17 305.281 848.37 305.801C849.61 306.281 851.11 306.521 852.87 306.521C854.23 306.521 855.59 306.281 856.95 305.801C858.31 305.321 859.33 304.761 860.01 304.121L861.81 307.601ZM851.49 283.481C849.13 283.481 847.23 284.101 845.79 285.341C844.39 286.581 843.55 288.701 843.27 291.701H858.15C858.15 288.661 857.57 286.541 856.41 285.341C855.25 284.101 853.61 283.481 851.49 283.481Z" fill="#666666"/>
<path d="M154.62 217L141.72 173.2H72.1195L59.2195 217H2.51953L76.3195 7.0004H137.52L211.32 217H154.62ZM85.6195 127.9H128.22L106.92 56.2004L85.6195 127.9Z" fill="#00819D"/>
<path d="M223.866 217V6.10041L275.466 0.400391V217H223.866Z" fill="#00819D"/>
<path d="M301.069 217V6.10041L352.669 0.400391V217H301.069Z" fill="#00819D"/>
<path d="M378.272 217V80.8004L429.872 75.4004V217H378.272Z" fill="#00819D"/>
<path d="M541.275 78.1004H594.975L546.675 217H489.375L441.375 78.1004H494.775L518.175 165.4L541.275 78.1004Z" fill="#00819D"/>
<path d="M668.796 184C682.596 184 699.396 178.6 718.296 163.6L732.096 199.6C715.596 212.2 692.196 221.5 668.196 221.5C623.496 221.5 589.896 189.4 589.896 147.7C589.896 106.3 621.996 73.6004 665.496 73.6004C702.996 73.6004 733.596 98.5004 737.196 142.3L641.496 172.9C647.796 179.8 656.796 184 668.796 184ZM666.096 110.8C648.396 110.8 635.796 123.7 633.396 142L690.096 123.4C684.996 115.6 676.296 110.8 666.096 110.8Z" fill="#00819D"/>
<path d="M842.864 118.6H809.564V157.3C809.564 168.7 814.964 175 826.664 175C832.064 175 838.064 173.8 842.864 172V214C835.064 217 824.564 219.1 812.864 219.1C775.364 219.1 757.964 197.8 757.964 164.5V118.6H741.764V78.1004H757.964V54.4004L809.564 29.8004V78.1004H842.864V118.6Z" fill="#00819D"/>
<path d="M374.07 32.1996C374.07 48.0996 387.57 61.2996 404.37 61.2996C421.17 61.2996 434.67 48.0996 434.67 32.1996C434.67 16.2996 421.17 3.09961 404.37 3.09961C387.57 3.09961 374.07 16.2996 374.07 32.1996Z" fill="#FF7A00"/>
<path d="M846.351 7L847.251 12.95H842.101V25.75H835.301V12.95H829.801L830.701 7H846.351ZM873.101 25.75H867.001L865.701 17.35L860.551 25.55L855.401 17.3L854.151 25.75H848.051L850.901 7H856.001L860.551 15.35L865.101 7H870.251L873.101 25.75Z" fill="#00819D"/>
</svg>
