<svg width="22" height="21" viewBox="0 0 22 21" fill="none" xmlns="http://www.w3.org/2000/svg">
<path d="M6.47932 20.731C5.88538 20.731 5.37693 20.528 4.95398 20.122C4.53102 19.716 4.31955 19.228 4.31955 18.6579C4.31955 18.0878 4.53102 17.5997 4.95398 17.1938C5.37693 16.7878 5.88538 16.5848 6.47932 16.5848C7.07326 16.5848 7.5817 16.7878 8.00466 17.1938C8.42761 17.5997 8.63909 18.0878 8.63909 18.6579C8.63909 19.228 8.42761 19.716 8.00466 20.122C7.5817 20.528 7.07326 20.731 6.47932 20.731ZM17.2782 20.731C16.6842 20.731 16.1758 20.528 15.7528 20.122C15.3299 19.716 15.1184 19.228 15.1184 18.6579C15.1184 18.0878 15.3299 17.5997 15.7528 17.1938C16.1758 16.7878 16.6842 16.5848 17.2782 16.5848C17.8721 16.5848 18.3806 16.7878 18.8035 17.1938C19.2265 17.5997 19.438 18.0878 19.438 18.6579C19.438 19.228 19.2265 19.716 18.8035 20.122C18.3806 20.528 17.8721 20.731 17.2782 20.731ZM5.56142 4.1462L8.15314 9.32894H15.7123L18.682 4.1462H5.56142ZM4.53552 2.0731H20.4638C20.8778 2.0731 21.1928 2.25018 21.4087 2.60433C21.6247 2.95848 21.6337 3.31696 21.4357 3.67975L17.6021 10.3137C17.4042 10.6592 17.1387 10.927 16.8057 11.117C16.4728 11.307 16.1083 11.402 15.7123 11.402H7.66719L6.47932 13.4751H19.438V15.5482H6.47932C5.6694 15.5482 5.05747 15.207 4.64351 14.5246C4.22956 13.8423 4.21156 13.1642 4.58952 12.4904L6.04736 9.95087L2.15977 2.0731H0V0H3.50963L4.53552 2.0731Z" fill="#434242"/>
</svg>
