<svg width="377" height="52" viewBox="0 0 377 52" fill="none" xmlns="http://www.w3.org/2000/svg">
<path d="M218.573 46.3088L202.526 23.4736L218.573 0.638428H376.127V46.3088H218.573Z" fill="#006937"/>
<path d="M375.5 1.27582V45.6804H218.903L203.304 23.4831L218.903 1.28579H375.5M376.766 0H218.245L201.75 23.4731L218.245 46.9462H376.766V0Z" fill="#434242"/>
<path d="M0 0.000244141V46.9365H91.4903L92.3076 45.6706H1.26585V1.27606H375.5V45.6706H183.449V46.9365H376.766V0.000244141H0Z" fill="#434242"/>
<path d="M219.371 39.9808L220.228 36.3826H218.375L218.943 33.9306H220.807L221.474 31.1198H219.601L220.179 28.6678H222.043L222.92 25.0198H225.511L224.644 28.6678H227.235L228.103 25.0198H230.704L229.837 28.6678H231.671L231.113 31.1198H229.259L228.611 33.9206H230.465L229.887 36.4025H228.023L227.146 39.9907H224.554L225.411 36.4025H222.83L221.973 39.9907H219.371V39.9808ZM223.398 33.9306H226.019L226.657 31.1198H224.046L223.398 33.9306Z" fill="white"/>
<path d="M235.03 39.9803V15.8893L227.714 18.4808L225.681 12.4804L241.569 6.84888H242.077V39.9704H235.04L235.03 39.9803Z" fill="white"/>
<path d="M254.347 16.4771L257.886 6.78882H255.344L253.071 13.5566L250.749 6.78882H248.167L251.736 16.4771H254.347Z" fill="white"/>
<path d="M262.36 12.4204H266.148V10.5864H262.36V8.78229H266.866V6.78882H260.068V16.4771H266.925V14.4637H262.36V12.4204Z" fill="white"/>
<path d="M271.651 16.4771H273.964V8.89193H276.535V6.78882H269.07V8.89193H271.651V16.4771Z" fill="white"/>
<path d="M285.755 14.4637H281.189V12.4204H284.977V10.5864H281.189V8.78229H285.705V6.78882H278.897V16.4771H285.755V14.4637Z" fill="white"/>
<path d="M290.649 12.909H291.496L293.649 16.4673H296.37L293.759 12.4405C294.157 12.3209 294.506 12.1515 294.825 11.9023C295.134 11.6631 295.383 11.364 295.563 10.9952C295.742 10.6364 295.832 10.2178 295.832 9.73936C295.832 9.12138 295.682 8.58314 295.393 8.14458C295.104 7.70602 294.686 7.36713 294.147 7.12791C293.609 6.88869 292.981 6.77905 292.264 6.77905H288.336V16.4573H290.629V12.899L290.649 12.909ZM290.649 8.68282H292.054C292.533 8.68282 292.891 8.78249 293.151 8.97187C293.41 9.17122 293.529 9.48021 293.529 9.89883C293.529 10.3175 293.4 10.6065 293.121 10.7959C292.852 10.9853 292.473 11.075 291.994 11.075H290.639V8.68282H290.649Z" fill="white"/>
<path d="M301.095 6.78882H298.802V16.4671H301.095V6.78882Z" fill="white"/>
<path d="M306.686 10.4568L310.673 16.4771H312.935V6.78882H310.712V12.7294L306.725 6.78882H304.463V16.4771H306.686V10.4568Z" fill="white"/>
<path d="M318.387 14.5135H321.855L322.543 16.4671H325.125L321.477 6.78882H318.815L315.197 16.4671H317.709L318.377 14.5135H318.387ZM320.111 9.25075L321.327 12.5998H318.905L320.111 9.25075Z" fill="white"/>
<path d="M329.691 12.909H330.538L332.691 16.4673H335.412L332.801 12.4405C333.199 12.3209 333.548 12.1515 333.867 11.9023C334.176 11.6631 334.425 11.364 334.605 10.9952C334.784 10.6364 334.874 10.2178 334.874 9.73936C334.874 9.12138 334.724 8.58314 334.435 8.14458C334.146 7.70602 333.728 7.36713 333.189 7.12791C332.651 6.88869 332.023 6.77905 331.306 6.77905H327.378V16.4573H329.671V12.899L329.691 12.909ZM329.691 8.68282H331.096C331.575 8.68282 331.933 8.78249 332.193 8.97187C332.452 9.17122 332.571 9.48021 332.571 9.89883C332.571 10.3175 332.442 10.6065 332.163 10.7959C331.894 10.9853 331.515 11.075 331.036 11.075H329.681V8.68282H329.691Z" fill="white"/>
<path d="M340.137 6.78882H337.844V16.4671H340.137V6.78882Z" fill="white"/>
<path d="M345.587 14.5135H349.056L349.743 16.4671H352.325L348.677 6.78882H346.016L342.397 16.4671H344.909L345.577 14.5135H345.587ZM347.311 9.25075L348.527 12.5998H346.105L347.311 9.25075Z" fill="white"/>
<path d="M356.811 10.4568L360.798 16.4771H363.071V6.78882H360.838V12.7294L356.861 6.78882H354.588V16.4771H356.811V10.4568Z" fill="white"/>
<path d="M256.589 24.8307C256.768 24.4719 256.858 24.0532 256.858 23.5748C256.858 22.9568 256.708 22.4186 256.419 21.98C256.13 21.5415 255.712 21.2026 255.173 20.9634C254.635 20.7241 254.007 20.6145 253.289 20.6145H249.362V30.2928H251.655V26.7345H252.502L254.655 30.2928H257.376L254.765 26.266C255.163 26.1464 255.512 25.9769 255.831 25.7278C256.14 25.4885 256.389 25.1895 256.569 24.8207L256.589 24.8307ZM254.137 24.6214C253.868 24.8108 253.489 24.9005 253.01 24.9005H251.655V22.5083H253.06C253.539 22.5083 253.897 22.608 254.157 22.7973C254.416 22.9967 254.535 23.3057 254.535 23.7243C254.535 24.1429 254.406 24.432 254.127 24.6214H254.137Z" fill="white"/>
<path d="M266.009 28.2892H261.444V26.2558H265.221V24.4119H261.444V22.6177H265.949V20.6243H259.141V30.3026H266.009V28.2892Z" fill="white"/>
<path d="M276.196 29.3651L275.15 27.4315C274.771 27.7305 274.362 27.9398 273.934 28.0694C273.505 28.199 273.076 28.2687 272.648 28.2687C272.04 28.2687 271.521 28.1591 271.093 27.9298C270.664 27.7106 270.325 27.3816 270.096 26.963C269.867 26.5444 269.747 26.0361 269.747 25.4579C269.747 25.0293 269.807 24.6307 269.937 24.2918C270.066 23.9429 270.256 23.6539 270.505 23.4047C270.754 23.1555 271.053 22.9761 271.402 22.8365C271.751 22.697 272.159 22.6372 272.608 22.6372C273.056 22.6372 273.485 22.707 273.854 22.8365C274.223 22.9661 274.552 23.1754 274.821 23.4545L275.967 21.5707C275.528 21.2019 275.03 20.9128 274.482 20.7035C273.934 20.4942 273.256 20.3945 272.448 20.3945C271.701 20.3945 271.013 20.5141 270.395 20.7633C269.777 21.0125 269.229 21.3614 268.77 21.8099C268.312 22.2584 267.953 22.7967 267.704 23.4146C267.455 24.0326 267.325 24.7204 267.325 25.4679C267.325 26.4945 267.544 27.3816 267.973 28.1292C268.402 28.8767 269 29.4648 269.757 29.8735C270.525 30.2821 271.402 30.4915 272.409 30.4915C273.236 30.4915 273.963 30.3818 274.591 30.1725C275.209 29.9632 275.748 29.6841 276.196 29.3352V29.3651Z" fill="white"/>
<path d="M282.076 30.511C282.813 30.511 283.501 30.3814 284.129 30.1223C284.757 29.8631 285.305 29.5143 285.774 29.0558C286.242 28.5973 286.601 28.069 286.86 27.451C287.119 26.833 287.249 26.1752 287.249 25.4575C287.249 24.7399 287.119 24.092 286.86 23.484C286.601 22.876 286.242 22.3378 285.774 21.8793C285.305 21.4208 284.757 21.0619 284.129 20.8028C283.501 20.5436 282.813 20.4141 282.076 20.4141C281.338 20.4141 280.65 20.5436 280.012 20.7928C279.375 21.042 278.836 21.4008 278.368 21.8593C277.909 22.3178 277.541 22.8461 277.291 23.4641C277.042 24.082 276.913 24.7399 276.913 25.4575C276.913 26.1752 277.042 26.833 277.291 27.451C277.541 28.069 277.909 28.5973 278.368 29.0558C278.836 29.5143 279.375 29.8731 280.012 30.1223C280.64 30.3814 281.328 30.511 282.076 30.511ZM279.315 25.4675C279.315 25.0289 279.384 24.6302 279.524 24.2714C279.664 23.9126 279.853 23.6136 280.102 23.3544C280.351 23.0953 280.64 22.9059 280.979 22.7763C281.318 22.6467 281.687 22.577 282.076 22.577C282.604 22.577 283.082 22.6966 283.491 22.9358C283.91 23.175 284.239 23.5139 284.478 23.9425C284.717 24.3811 284.837 24.8894 284.837 25.4675C284.837 25.9061 284.767 26.3048 284.637 26.6636C284.498 27.0224 284.308 27.3214 284.059 27.5806C283.81 27.8397 283.521 28.0291 283.182 28.1587C282.843 28.2883 282.474 28.358 282.086 28.358C281.557 28.358 281.089 28.2384 280.67 27.9992C280.252 27.76 279.923 27.4211 279.684 26.9925C279.444 26.5539 279.325 26.0456 279.325 25.4675H279.315Z" fill="white"/>
<path d="M299.998 30.3026V20.6243H297.805L294.745 25.9568L291.536 20.6243H289.333V30.3026H291.436L291.396 24.362L293.898 28.4885H295.433L297.805 24.4119L297.775 30.3026H299.998Z" fill="white"/>
<path d="M313.363 30.3026V20.6243H311.16L308.11 25.9568L304.9 20.6243H302.688V30.3026H304.791L304.761 24.362L307.263 28.4885H308.788L311.17 24.4119L311.13 30.3026H313.363Z" fill="white"/>
<path d="M322.862 22.6177V20.6243H316.054V30.3026H322.912V28.2892H318.347V26.2558H322.134V24.4119H318.347V22.6177H322.862Z" fill="white"/>
<path d="M331.085 26.5548L327.108 20.6243H324.836V30.3026H327.059V24.2923L331.046 30.3026H333.318V20.6243H331.085V26.5548Z" fill="white"/>
<path d="M341.393 29.9539C342.011 29.7247 342.539 29.3957 342.987 28.9671C343.436 28.5385 343.775 28.0302 344.024 27.4322C344.263 26.8341 344.383 26.1763 344.383 25.4586C344.383 24.5018 344.174 23.6645 343.745 22.9369C343.316 22.2093 342.728 21.6411 341.971 21.2325C341.213 20.8238 340.336 20.6145 339.329 20.6145H336.01V30.2928H339.329C340.087 30.2928 340.775 30.1732 341.393 29.9439V29.9539ZM338.303 28.1697V22.7575H339.21C339.758 22.7575 340.236 22.8572 340.655 23.0665C341.074 23.2758 341.393 23.5748 341.622 23.9835C341.851 24.3822 341.971 24.8805 341.971 25.4586C341.971 25.8972 341.901 26.2859 341.771 26.6248C341.642 26.9637 341.452 27.2428 341.203 27.472C340.954 27.7013 340.665 27.8807 340.326 27.9903C339.987 28.1099 339.618 28.1598 339.2 28.1598H338.293L338.303 28.1697Z" fill="white"/>
<path d="M348.798 26.2558H352.585V24.4119H348.798V22.6177H353.313V20.6243H346.505V30.3026H353.363V28.2892H348.798V26.2558Z" fill="white"/>
<path d="M361.248 21.2422C360.49 20.8336 359.613 20.6243 358.606 20.6243H355.287V30.3026H358.606C359.364 30.3026 360.051 30.183 360.669 29.9537C361.287 29.7245 361.816 29.3955 362.264 28.9669C362.713 28.5383 363.052 28.03 363.301 27.432C363.54 26.8339 363.66 26.1761 363.66 25.4584C363.66 24.5016 363.45 23.6643 363.022 22.9367C362.593 22.2091 362.005 21.6409 361.248 21.2323V21.2422ZM361.058 26.6246C360.929 26.9635 360.739 27.2426 360.49 27.4718C360.241 27.7011 359.952 27.8805 359.613 27.9901C359.274 28.1097 358.905 28.1596 358.487 28.1596H357.58V22.7473H358.487C359.035 22.7473 359.513 22.847 359.932 23.0563C360.35 23.2656 360.669 23.5646 360.899 23.9733C361.128 24.372 361.248 24.8704 361.248 25.4485C361.248 25.887 361.178 26.2758 361.048 26.6146L361.058 26.6246Z" fill="white"/>
<path d="M251.616 36.4211L251.098 36.2716C250.868 36.2018 250.679 36.1321 250.54 36.0822C250.4 36.0324 250.31 35.9626 250.25 35.8928C250.191 35.8231 250.161 35.7433 250.161 35.6536C250.161 35.534 250.201 35.4244 250.28 35.3347C250.36 35.245 250.47 35.1752 250.599 35.1254C250.729 35.0755 250.898 35.0556 251.088 35.0556C251.277 35.0556 251.467 35.0755 251.646 35.1254C251.825 35.1752 252.005 35.235 252.164 35.3247C252.324 35.4144 252.453 35.5041 252.563 35.6237L253.251 34.6071C253.021 34.3778 252.702 34.2084 252.324 34.0788C251.935 33.9492 251.526 33.8894 251.078 33.8894C250.749 33.8894 250.45 33.9392 250.181 34.0289C249.912 34.1187 249.662 34.2482 249.463 34.4077C249.264 34.5672 249.104 34.7665 248.995 34.9858C248.885 35.2051 248.825 35.4543 248.825 35.7234C248.825 36.142 248.955 36.4909 249.224 36.7799C249.493 37.069 249.932 37.3082 250.54 37.4677L251.048 37.6072C251.407 37.7069 251.646 37.8066 251.776 37.9062C251.905 38.0059 251.975 38.1355 251.975 38.285C251.975 38.4744 251.885 38.6139 251.696 38.7136C251.516 38.8133 251.277 38.8631 250.988 38.8631C250.779 38.8631 250.569 38.8332 250.35 38.7834C250.131 38.7335 249.932 38.6538 249.732 38.5641C249.533 38.4744 249.383 38.3548 249.254 38.2252L248.586 39.2718C248.875 39.521 249.234 39.7103 249.662 39.8499C250.091 39.9795 250.52 40.0492 250.968 40.0492C251.447 40.0492 251.865 39.9695 252.214 39.81C252.563 39.6505 252.832 39.4313 253.031 39.1422C253.221 38.8531 253.32 38.5242 253.32 38.1554C253.32 37.7268 253.181 37.378 252.912 37.1089C252.643 36.8397 252.204 36.6205 251.596 36.441L251.616 36.4211Z" fill="white"/>
<path d="M258.265 37.5289C258.265 37.9276 258.166 38.2266 257.966 38.426C257.767 38.6253 257.498 38.715 257.139 38.715C256.78 38.715 256.511 38.6154 256.312 38.426C256.112 38.2266 256.013 37.9276 256.013 37.5289V34.0005H254.607V37.4791C254.607 37.9775 254.707 38.416 254.896 38.8047C255.086 39.1935 255.375 39.4925 255.744 39.7118C256.112 39.9311 256.581 40.0407 257.139 40.0407C257.697 40.0407 258.156 39.9311 258.535 39.7118C258.913 39.4925 259.192 39.1835 259.382 38.8047C259.571 38.416 259.671 37.9775 259.671 37.4891V34.0105H258.255V37.5389L258.265 37.5289Z" fill="white"/>
<path d="M265.072 34.2297C264.733 34.0703 264.334 34.0005 263.896 34.0005H261.523V39.9211H262.929V37.9177H263.866C264.354 37.9177 264.773 37.8379 265.112 37.6884C265.451 37.5389 265.72 37.3196 265.899 37.0206C266.078 36.7315 266.168 36.3727 266.168 35.9641C266.168 35.5554 266.069 35.1966 265.869 34.9075C265.67 34.6185 265.401 34.3892 265.062 34.2397L265.072 34.2297ZM264.514 36.5521C264.344 36.6717 264.115 36.7315 263.826 36.7315H262.929V35.2065H263.836C264.115 35.2065 264.344 35.2663 264.514 35.3859C264.683 35.5056 264.773 35.7049 264.773 35.984C264.773 36.2631 264.693 36.4425 264.524 36.5621L264.514 36.5521Z" fill="white"/>
<path d="M270.983 34.2297C270.644 34.0703 270.245 34.0005 269.807 34.0005H267.435V39.9211H268.84V37.9177H269.777C270.265 37.9177 270.684 37.8379 271.023 37.6884C271.362 37.5389 271.631 37.3196 271.81 37.0206C271.99 36.7315 272.079 36.3727 272.079 35.9641C272.079 35.5554 271.98 35.1966 271.78 34.9075C271.581 34.6185 271.312 34.3892 270.973 34.2397L270.983 34.2297ZM270.425 36.5521C270.255 36.6717 270.026 36.7315 269.737 36.7315H268.84V35.2065H269.747C270.026 35.2065 270.255 35.2663 270.425 35.3859C270.594 35.5056 270.684 35.7049 270.684 35.984C270.684 36.2631 270.604 36.4425 270.435 36.5621L270.425 36.5521Z" fill="white"/>
<path d="M274.75 33.9907H273.345V39.9113H277.122V38.6255H274.75V33.9907Z" fill="white"/>
<path d="M279.864 37.4295H282.176V36.3131H279.864V35.2067H282.625V33.9907H278.458V39.9113H282.655V38.6754H279.864V37.4295Z" fill="white"/>
<path d="M287.369 37.25L285.405 33.9907H284.06V39.9113H285.345L285.325 36.2832L286.85 38.795H287.787L289.243 36.3131L289.223 39.9113H290.578V33.9907H289.243L287.369 37.25Z" fill="white"/>
<path d="M293.858 37.4295H296.17V36.3131H293.858V35.2067H296.609V33.9907H292.452V39.9113H296.648V38.6754H293.858V37.4295Z" fill="white"/>
<path d="M301.872 37.6188L299.44 33.9907H298.055V39.9113H299.41V36.2334L301.852 39.9113H303.238V33.9907H301.872V37.6188Z" fill="white"/>
<path d="M304.493 35.2765H306.068V39.9113H307.483V35.2765H309.058V33.9907H304.493V35.2765Z" fill="white"/>
<path d="M317.351 38.5448C317.092 38.6245 316.833 38.6644 316.564 38.6644C316.195 38.6644 315.876 38.5946 315.617 38.4551C315.358 38.3155 315.149 38.1261 315.009 37.867C314.869 37.6078 314.8 37.2988 314.8 36.95C314.8 36.6809 314.84 36.4516 314.919 36.2323C314.999 36.0131 315.109 35.8436 315.268 35.6941C315.428 35.5446 315.597 35.4349 315.816 35.3452C316.036 35.2555 316.275 35.2256 316.554 35.2256C316.833 35.2256 317.082 35.2655 317.311 35.3452C317.541 35.425 317.74 35.5546 317.91 35.724L318.607 34.5778C318.338 34.3485 318.029 34.1691 317.7 34.0495C317.371 33.9299 316.953 33.8601 316.454 33.8601C315.996 33.8601 315.577 33.9398 315.198 34.0894C314.82 34.2389 314.491 34.4581 314.212 34.7273C313.933 35.0064 313.713 35.3353 313.564 35.714C313.414 36.0928 313.334 36.5114 313.334 36.9699C313.334 37.5979 313.464 38.1361 313.723 38.5946C313.982 39.0531 314.351 39.4119 314.82 39.6611C315.288 39.9103 315.826 40.0399 316.444 40.0399C316.953 40.0399 317.391 39.9801 317.78 39.8505C318.169 39.7209 318.488 39.5515 318.757 39.3421L318.109 38.166C317.88 38.3454 317.63 38.475 317.371 38.5547L317.351 38.5448Z" fill="white"/>
<path d="M324.817 34.7572C324.528 34.4781 324.199 34.2588 323.811 34.0993C323.422 33.9398 323.003 33.8601 322.555 33.8601C322.106 33.8601 321.678 33.9398 321.299 34.0894C320.91 34.2488 320.581 34.4581 320.292 34.7372C320.013 35.0163 319.794 35.3452 319.634 35.714C319.475 36.0928 319.395 36.4915 319.395 36.94C319.395 37.3885 319.475 37.7872 319.634 38.156C319.794 38.5348 320.013 38.8537 320.292 39.1328C320.571 39.4119 320.91 39.6312 321.299 39.7907C321.688 39.9502 322.106 40.0199 322.555 40.0199C323.003 40.0199 323.432 39.9402 323.811 39.7907C324.199 39.6312 324.528 39.4119 324.817 39.1328C325.106 38.8537 325.326 38.5248 325.475 38.156C325.625 37.7872 325.714 37.3786 325.714 36.94C325.714 36.5015 325.635 36.1028 325.475 35.734C325.316 35.3652 325.096 35.0363 324.817 34.7472V34.7572ZM324.12 37.6776C324.04 37.8969 323.92 38.0863 323.771 38.2358C323.621 38.3953 323.442 38.5049 323.232 38.5946C323.023 38.6843 322.804 38.7142 322.565 38.7142C322.246 38.7142 321.957 38.6444 321.697 38.4949C321.438 38.3454 321.239 38.1461 321.099 37.8769C320.95 37.6078 320.88 37.2988 320.88 36.94C320.88 36.6709 320.92 36.4217 321.01 36.2124C321.099 35.9931 321.209 35.8137 321.359 35.6542C321.508 35.4948 321.688 35.3851 321.897 35.2954C322.106 35.2057 322.325 35.1758 322.565 35.1758C322.894 35.1758 323.183 35.2456 323.432 35.3951C323.681 35.5446 323.88 35.7439 324.03 36.0131C324.179 36.2822 324.249 36.5912 324.249 36.95C324.249 37.2191 324.209 37.4583 324.12 37.6776Z" fill="white"/>
<path d="M330.528 37.25L328.565 33.9907H327.219V39.9113H328.505L328.485 36.2832L330.01 38.795H330.947L332.402 36.3131L332.382 39.9113H333.738V33.9907H332.392L330.528 37.25Z" fill="white"/>
<path d="M339.16 34.2297C338.821 34.0703 338.422 34.0005 337.984 34.0005H335.611V39.9211H337.017V37.9177H337.954C338.442 37.9177 338.861 37.8379 339.2 37.6884C339.538 37.5389 339.808 37.3196 339.987 37.0206C340.166 36.7315 340.256 36.3727 340.256 35.9641C340.256 35.5554 340.156 35.1966 339.957 34.9075C339.758 34.6185 339.489 34.3892 339.15 34.2397L339.16 34.2297ZM338.602 36.5521C338.432 36.6717 338.203 36.7315 337.914 36.7315H337.017V35.2065H337.924C338.203 35.2065 338.432 35.2663 338.602 35.3859C338.771 35.5056 338.861 35.7049 338.861 35.984C338.861 36.2631 338.781 36.4425 338.612 36.5621L338.602 36.5521Z" fill="white"/>
<path d="M342.718 33.9907L340.505 39.9113H342.04L342.449 38.7152H344.572L344.991 39.9113H346.575L344.343 33.9907H342.718ZM342.768 37.5391L343.506 35.4958L344.253 37.5391H342.778H342.768Z" fill="white"/>
<path d="M351.588 37.6188L349.156 33.9907H347.771V39.9113H349.126V36.2334L351.568 39.9113H352.954V33.9907H351.588V37.6188Z" fill="white"/>
<path d="M356.891 36.0938L355.655 33.9907H354.08L356.163 37.4394V39.9113H357.569V37.4494L359.642 33.9907H358.107L356.891 36.0938Z" fill="white"/>
<path d="M363.847 35.8247L363.469 34.6785L362.422 35.117L362.532 33.9907H361.306L361.415 35.117L360.369 34.6785L360 35.8247L361.086 36.1038L360.359 36.951L361.336 37.6388L361.914 36.662L362.492 37.6288L363.489 36.951L362.751 36.0938L363.847 35.8247Z" fill="white"/>
<path d="M13.695 13.5854L20.0442 13.6253L20.0642 17.2933L22.7354 13.5256C22.7354 13.5256 29.7325 13.5256 30.2109 13.5256C30.9884 13.5356 31.8157 13.7848 32.5732 14.3828C33.3307 14.9709 33.56 15.7185 33.6098 16.5457C33.5899 16.157 33.6098 33.1314 33.6098 33.1314H26.9715V20.2337C26.9715 20.2337 27.0911 19.3067 26.4433 18.7784C25.8652 18.31 25.4067 18.3299 24.9681 18.3299H20.104V33.0616H13.6851V13.5854H13.695Z" fill="#434242"/>
<path d="M55.7872 33.3812H49.3683L49.4181 29.6734L46.7469 33.441C46.7469 33.441 39.7498 33.441 39.2614 33.441C38.4839 33.4211 37.6566 33.1819 36.8891 32.5838C36.1316 31.9958 35.9123 31.2482 35.8525 30.4209C35.8824 30.8096 35.8525 13.8452 35.8525 13.8452H42.5008V26.743C42.5008 26.743 42.3811 27.6699 43.029 28.1982C43.6171 28.6667 44.0656 28.6368 44.5142 28.6368H49.3683V13.8951H55.7872V33.3812Z" fill="#434242"/>
<path d="M126.346 13.8938H119.927V33.38H126.346V13.8938Z" fill="#434242"/>
<path d="M138.097 17.9013L141.476 13.8146C141.476 13.8146 147.077 13.7249 147.556 13.7349C148.333 13.7548 149.16 13.9941 149.918 14.5821C150.676 15.1702 150.905 15.9178 150.955 16.745C150.925 16.3563 150.955 33.3207 150.955 33.3207H144.306V20.423C144.306 20.423 144.426 19.496 143.778 18.9678C143.2 18.4993 142.751 18.5192 142.303 18.5192C141.854 18.5192 138.047 18.5192 138.047 18.5192L138.087 17.8913L138.097 17.9013Z" fill="#434242"/>
<path d="M57.6816 13.814H78.2841L75.0448 18.8973H70.1309V33.35H63.4826V18.8973H57.6816V13.814Z" fill="#434242"/>
<path d="M173.971 13.7051H180.888L183.629 17.7718L186.47 13.7051H193.457L187.197 23.0844L194.125 33.2411H187.147L183.679 28.2175L180.39 33.2411H173.303L180.17 23.0245L173.971 13.7051Z" fill="#434242"/>
<path d="M100.59 18.9576L103.49 13.8743H113.258C113.986 13.8743 115.81 14.1235 116.647 15.1302C117.485 16.1369 117.833 17.004 117.833 17.8911V33.3505H111.524L111.504 30.3603L109.122 33.3305C109.122 33.3305 104.886 33.3804 104.158 33.3405C102.873 33.2907 99.4836 32.6229 99.354 28.596C99.2245 24.5294 99.7826 23.6124 101.288 22.4861C102.085 21.888 103.331 21.6289 104.597 21.6189C106.68 21.599 110.517 21.6189 110.517 21.6189C110.517 21.6189 111.733 21.3996 111.614 20.2235C111.584 19.9444 111.634 18.9277 110.737 18.9377C109.81 18.9576 100.57 18.9377 100.57 18.9377L100.59 18.9576ZM106.481 25.4962C105.972 25.556 105.544 26.0444 105.544 26.7321C105.544 27.4199 105.614 28.0678 106.361 28.307C107.009 28.5063 111.255 28.3568 111.255 28.3568V25.4563C111.255 25.4563 107.029 25.4464 106.481 25.5062V25.4962Z" fill="#434242"/>
<path d="M79.0204 33.3515V13.8853C79.0204 13.8853 91.0311 13.8155 93.4631 13.8753C96.8022 13.965 98.4767 17.9619 98.5465 21.301C98.6063 24.1616 97.6992 25.8261 96.4433 27.0621C95.6061 27.8994 94.3203 28.8463 94.3203 28.8463L100.241 37.6674L101.577 35.654H107.716L103.47 43.2491L108.773 51.6515H102.045L100.341 49.06L98.7757 51.6316H91.5195L96.6527 43.5979L85.4793 26.175L85.4494 33.3615H79.0005L79.0204 33.3515ZM85.4494 18.6796V24.3709C85.4494 24.3709 89.7254 24.3809 90.4928 24.3709C91.2603 24.3609 92.4066 24.331 92.4963 21.5402C92.5262 20.4537 92.287 18.7194 90.6125 18.6796C89.7553 18.6596 85.4494 18.6796 85.4494 18.6796Z" fill="#434242"/>
<path d="M125.876 17.9413L129.176 13.9743C129.176 13.9743 134.777 13.8846 135.256 13.8946C136.033 13.9145 136.851 14.1537 137.618 14.7418C138.376 15.3299 138.605 16.0874 138.655 16.9047C138.625 16.516 138.655 33.4804 138.655 33.4804H132.016V20.5827C132.016 20.5827 132.136 19.6557 131.488 19.1274C130.9 18.659 130.451 18.6789 130.013 18.6789C128.966 18.6789 125.757 18.6291 125.757 18.6291L125.886 17.9214L125.876 17.9413Z" fill="#434242"/>
<path d="M154.194 18.8973L157.094 13.814H166.862C167.59 13.814 169.414 14.0631 170.251 15.0698C171.088 16.0766 171.437 16.9337 171.437 17.8308V33.2902H165.128L165.108 30.3099L162.726 33.2802C162.726 33.2802 158.489 33.3201 157.762 33.2902C156.476 33.2304 153.087 32.5725 152.968 28.5457C152.838 24.489 153.386 23.562 154.901 22.4357C155.699 21.8377 156.935 21.5785 158.21 21.5686C160.284 21.5586 164.121 21.5686 164.121 21.5686C164.121 21.5686 165.337 21.3493 165.227 20.1731C165.207 19.894 165.237 18.8774 164.35 18.8873C163.433 18.9073 154.194 18.8873 154.194 18.8873V18.8973ZM160.074 25.4359C159.566 25.4957 159.137 25.9841 159.137 26.6718C159.137 27.3596 159.207 28.0075 159.955 28.2467C160.603 28.446 164.849 28.2965 164.849 28.2965V25.396C164.849 25.396 160.622 25.3861 160.074 25.4459V25.4359Z" fill="#434242"/>
<path d="M110.538 51.4507V41.4834H112.223V49.8061H115.213V51.4507H110.538Z" fill="#434242"/>
<path d="M117.585 41.4834H119.668L121.881 51.4507H120.117L119.728 49.3476H117.505L117.117 51.4507H115.353L117.565 41.4834H117.585ZM117.814 47.703H119.449L118.642 43.2277H118.622L117.814 47.703Z" fill="#434242"/>
<path d="M122.47 41.4834H125.29C126.666 41.4834 127.673 42.1014 127.673 44.0051C127.673 45.0816 127.234 45.9089 126.407 46.188V46.2179C127.334 46.3674 127.932 47.2146 127.932 48.5303C127.932 50.0952 127.284 51.4507 125.32 51.4507H122.48V41.4834H122.47ZM124.154 45.58H124.643C125.57 45.58 125.988 45.2012 125.988 44.2643C125.988 43.3274 125.599 42.9685 124.772 42.9685H124.164V45.58H124.154ZM124.154 49.9756H124.812C125.619 49.9756 126.168 49.6267 126.168 48.4705C126.168 47.3143 125.619 46.9754 124.882 46.9754H124.154V49.9756Z" fill="#434242"/>
<path d="M131.649 41.2949C134.181 41.2949 134.49 43.4479 134.49 46.468C134.49 49.4881 134.171 51.651 131.649 51.651C129.128 51.651 128.809 49.498 128.809 46.468C128.809 43.4379 129.128 41.2949 131.649 41.2949ZM131.649 50.1659C132.646 50.1659 132.815 49.1492 132.815 46.468C132.815 43.7868 132.646 42.7701 131.649 42.7701C130.653 42.7701 130.493 43.8067 130.493 46.468C130.493 49.1293 130.653 50.1659 131.649 50.1659Z" fill="#434242"/>
<path d="M135.486 41.4834H138.606C139.991 41.4834 140.828 42.3506 140.828 44.055C140.828 45.3806 140.39 46.2777 139.433 46.5069V46.5368C140.579 46.7163 140.759 47.4738 140.779 49.5869C140.788 50.6334 140.838 51.1816 141.157 51.371V51.4507H139.333C139.174 51.1717 139.134 50.7929 139.124 50.4042L139.074 48.4904C139.054 47.713 138.755 47.2346 138.077 47.2346H137.18V51.4507H135.496V41.4834H135.486ZM137.17 45.8391H137.868C138.675 45.8391 139.134 45.4205 139.134 44.344C139.134 43.4171 138.725 42.9586 137.958 42.9586H137.16V45.8391H137.17Z" fill="#434242"/>
<path d="M143.63 41.4834H145.713L147.926 51.4507H146.172L145.783 49.3476H143.56L143.181 51.4507H141.427L143.64 41.4834H143.63ZM143.849 47.703H145.484L144.677 43.2277H144.647L143.839 47.703H143.849Z" fill="#434242"/>
<path d="M152.759 41.4834V43.128H150.935V51.4507H149.241V43.128H147.417V41.4834H152.759Z" fill="#434242"/>
<path d="M156.149 41.2949C158.681 41.2949 158.989 43.4479 158.989 46.468C158.989 49.4881 158.671 51.651 156.149 51.651C153.627 51.651 153.308 49.498 153.308 46.468C153.308 43.4379 153.617 41.2949 156.149 41.2949ZM156.149 50.1659C157.136 50.1659 157.305 49.1492 157.305 46.468C157.305 43.7868 157.136 42.7701 156.149 42.7701C155.162 42.7701 154.993 43.8067 154.993 46.468C154.993 49.1293 155.162 50.1659 156.149 50.1659Z" fill="#434242"/>
<path d="M159.995 41.4834H163.105C164.49 41.4834 165.328 42.3506 165.328 44.055C165.328 45.3806 164.879 46.2777 163.932 46.5069V46.5368C165.078 46.7163 165.258 47.4738 165.278 49.5869C165.288 50.6334 165.338 51.1816 165.657 51.371V51.4507H163.833C163.663 51.1717 163.623 50.7929 163.613 50.4042L163.573 48.4904C163.553 47.713 163.264 47.2346 162.577 47.2346H161.68V51.4507H159.995V41.4834ZM161.68 45.8391H162.377C163.185 45.8391 163.643 45.4205 163.643 44.344C163.643 43.4171 163.235 42.9586 162.467 42.9586H161.67V45.8391H161.68Z" fill="#434242"/>
<path d="M166.585 51.4507V41.4834H168.269V51.4507H166.585Z" fill="#434242"/>
<path d="M174.199 41.4838V43.1285H171.209V45.4708H174.02V47.1154H171.209V49.7966H174.309V51.4412H169.524V41.4739H174.199V41.4838Z" fill="#434242"/>
<path d="M176.512 48.3418V48.6409C176.512 49.5778 176.731 50.1758 177.618 50.1758C178.137 50.1758 178.625 49.7871 178.625 48.9498C178.625 48.0428 178.236 47.7039 177.12 47.2454C175.625 46.6275 174.937 45.8899 174.937 44.2253C174.937 42.2917 175.934 41.2949 177.519 41.2949C179.014 41.2949 180.11 42.0624 180.11 43.9761V44.2552H178.495C178.495 43.3183 178.226 42.7701 177.578 42.7701C176.821 42.7701 176.621 43.3382 176.621 43.9263C176.621 44.5443 176.771 44.923 177.489 45.2819L178.784 45.9497C180.05 46.6075 180.379 47.375 180.379 48.591C180.379 50.7041 179.303 51.651 177.479 51.651C175.655 51.651 174.817 50.5945 174.817 48.7505V48.3418H176.502H176.512Z" fill="#434242"/>
<path d="M198.309 13.7051C199.964 13.7051 201.289 15.0507 201.289 16.7352C201.289 18.4196 199.964 19.7852 198.299 19.7852C196.635 19.7852 195.289 18.4495 195.289 16.7352C195.289 15.0208 196.635 13.7051 198.299 13.7051H198.309ZM198.289 14.1735C196.954 14.1735 195.857 15.3198 195.857 16.7352C195.857 18.1505 196.954 19.3067 198.299 19.3067C199.645 19.3167 200.721 18.1704 200.721 16.7451C200.721 15.3198 199.645 14.1735 198.299 14.1735H198.289ZM197.731 18.4994H197.193V15.1105C197.472 15.0706 197.741 15.0307 198.15 15.0307C198.658 15.0307 198.997 15.1404 199.196 15.2899C199.396 15.4394 199.505 15.6686 199.505 15.9876C199.505 16.4361 199.206 16.7052 198.847 16.8149V16.8448C199.146 16.8946 199.346 17.1637 199.416 17.6621C199.495 18.1904 199.575 18.3897 199.635 18.4994H199.067C198.987 18.3897 198.907 18.0807 198.837 17.6322C198.758 17.2036 198.538 17.0342 198.11 17.0342H197.731V18.4894V18.4994ZM197.731 16.6255H198.12C198.568 16.6255 198.947 16.466 198.947 16.0474C198.947 15.7484 198.728 15.4593 198.12 15.4593C197.94 15.4593 197.821 15.4693 197.731 15.4892V16.6355V16.6255Z" fill="#434242"/>
</svg>
