<svg width="351" height="48" viewBox="0 0 351 48" fill="none" xmlns="http://www.w3.org/2000/svg">
<path d="M203.123 43.0349L188.209 21.8139L203.123 0.592896H349.539V43.0349H203.123Z" fill="#FFB653"/>
<path d="M348.956 1.18608V42.4517H203.429L188.933 21.8235L203.429 1.19534H348.956M350.133 0.000442505H202.818L187.488 21.8143L202.818 43.6281H350.133V0.000442505Z" fill="#3A3939"/>
<path d="M0 0V43.6184H85.0229L85.7825 42.442H1.17637V1.18563H348.956V42.442H170.481V43.6184H350.133V0H0Z" fill="#3A3939"/>
<path d="M203.864 37.1521L204.661 33.8083H202.938L203.466 31.5296H205.198L205.819 28.9175H204.077L204.615 26.6389H206.347L207.162 23.2487H209.57L208.764 26.6389H211.173L211.978 23.2487H214.396L213.59 26.6389H215.295L214.776 28.9175H213.053L212.451 31.5204H214.174L213.636 33.8268H211.904L211.089 37.1614H208.681L209.477 33.8268H207.078L206.282 37.1614H203.864V37.1521ZM207.606 31.5296H210.043L210.635 28.9175H208.209L207.606 31.5296Z" fill="#3A3939"/>
<path d="M218.416 37.1528V14.7647L211.617 17.173L209.728 11.5968L224.492 6.36333H224.965V37.1435H218.425L218.416 37.1528Z" fill="#3A3939"/>
<path d="M236.366 15.3103L239.654 6.30693H237.292L235.18 12.5964L233.022 6.30693H230.623L233.939 15.3103H236.366Z" fill="#3A3939"/>
<path d="M243.813 11.5403H247.333V9.83594H243.813V8.15938H248V6.30682H241.683V15.3102H248.055V13.4392H243.813V11.5403Z" fill="#3A3939"/>
<path d="M252.448 15.3102H254.597V8.26127H256.987V6.30682H250.049V8.26127H252.448V15.3102Z" fill="#3A3939"/>
<path d="M265.553 13.4392H261.311V11.5403H264.83V9.83594H261.311V8.15938H265.507V6.30682H259.18V15.3102H265.553V13.4392Z" fill="#3A3939"/>
<path d="M270.103 11.9943H270.89L272.891 15.3011H275.419L272.993 11.559C273.363 11.4478 273.687 11.2903 273.984 11.0588C274.271 10.8365 274.502 10.5586 274.669 10.2159C274.836 9.88239 274.919 9.49335 274.919 9.04874C274.919 8.47445 274.78 7.97426 274.512 7.5667C274.243 7.15914 273.854 6.8442 273.354 6.6219C272.854 6.39959 272.27 6.2977 271.603 6.2977H267.954V15.2918H270.084V11.985L270.103 11.9943ZM270.103 8.06689H271.409C271.853 8.06689 272.187 8.15952 272.428 8.33551C272.668 8.52076 272.78 8.80791 272.78 9.19695C272.78 9.58598 272.659 9.8546 272.4 10.0306C272.15 10.2066 271.798 10.29 271.353 10.29H270.093V8.06689H270.103Z" fill="#3A3939"/>
<path d="M279.811 6.30682H277.68V15.301H279.811V6.30682Z" fill="#3A3939"/>
<path d="M285.007 9.71552L288.712 15.3102H290.814V6.30682H288.749V11.8274L285.044 6.30682H282.941V15.3102H285.007V9.71552Z" fill="#3A3939"/>
<path d="M295.88 13.4855H299.104L299.743 15.301H302.142L298.752 6.30682H296.278L292.916 15.301H295.25L295.871 13.4855H295.88ZM297.483 8.59473L298.613 11.707H296.362L297.483 8.59473Z" fill="#3A3939"/>
<path d="M306.385 11.9943H307.173L309.173 15.3011H311.702L309.275 11.559C309.646 11.4478 309.97 11.2903 310.266 11.0588C310.554 10.8365 310.785 10.5586 310.952 10.2159C311.119 9.88239 311.202 9.49335 311.202 9.04874C311.202 8.47445 311.063 7.97426 310.794 7.5667C310.526 7.15914 310.137 6.8442 309.637 6.6219C309.136 6.39959 308.553 6.2977 307.886 6.2977H304.236V15.2918H306.367V11.985L306.385 11.9943ZM306.385 8.06689H307.691C308.136 8.06689 308.469 8.15952 308.71 8.33551C308.951 8.52076 309.062 8.80791 309.062 9.19695C309.062 9.58598 308.942 9.8546 308.682 10.0306C308.432 10.2066 308.08 10.29 307.636 10.29H306.376V8.06689H306.385Z" fill="#3A3939"/>
<path d="M316.093 6.30682H313.962V15.301H316.093V6.30682Z" fill="#3A3939"/>
<path d="M321.157 13.4855H324.38L325.02 15.301H327.419L324.028 6.30682H321.555L318.193 15.301H320.527L321.148 13.4855H321.157ZM322.759 8.59473L323.889 11.707H321.639L322.759 8.59473Z" fill="#3A3939"/>
<path d="M331.588 9.71552L335.293 15.3102H337.405V6.30682H335.33V11.8274L331.634 6.30682H329.522V15.3102H331.588V9.71552Z" fill="#3A3939"/>
<path d="M238.451 23.0727C238.618 22.7393 238.701 22.3502 238.701 21.9056C238.701 21.3313 238.562 20.8311 238.293 20.4236C238.025 20.016 237.636 19.7011 237.136 19.4788C236.635 19.2565 236.052 19.1546 235.385 19.1546H231.735V28.1487H233.866V24.8419H234.653L236.654 28.1487H239.183L236.756 24.4066C237.126 24.2954 237.45 24.138 237.747 23.9064C238.034 23.6841 238.266 23.4062 238.432 23.0635L238.451 23.0727ZM236.172 22.8782C235.922 23.0542 235.57 23.1376 235.126 23.1376H233.866V20.9145H235.172C235.616 20.9145 235.95 21.0071 236.191 21.1831C236.432 21.3684 236.543 21.6555 236.543 22.0446C236.543 22.4336 236.422 22.7022 236.163 22.8782H236.172Z" fill="#3A3939"/>
<path d="M247.204 26.2868H242.962V24.3972H246.473V22.6835H242.962V21.0162H247.149V19.1637H240.822V28.1578H247.204V26.2868Z" fill="#3A3939"/>
<path d="M256.672 27.2878L255.699 25.4908C255.347 25.7687 254.968 25.9632 254.569 26.0836C254.171 26.204 253.773 26.2689 253.375 26.2689C252.81 26.2689 252.328 26.167 251.93 25.9539C251.531 25.7501 251.216 25.4445 251.003 25.0554C250.79 24.6664 250.679 24.194 250.679 23.6568C250.679 23.2585 250.735 22.888 250.855 22.573C250.975 22.2488 251.151 21.9802 251.383 21.7486C251.615 21.5171 251.892 21.3503 252.217 21.2207C252.541 21.091 252.921 21.0354 253.337 21.0354C253.754 21.0354 254.153 21.1002 254.495 21.2207C254.838 21.3411 255.144 21.5356 255.394 21.7949L256.459 20.0443C256.051 19.7016 255.588 19.4329 255.079 19.2384C254.569 19.0439 253.94 18.9513 253.189 18.9513C252.495 18.9513 251.855 19.0624 251.281 19.294C250.707 19.5256 250.197 19.8498 249.771 20.2666C249.345 20.6834 249.012 21.1836 248.78 21.7579C248.549 22.3322 248.428 22.9713 248.428 23.666C248.428 24.6201 248.632 25.4445 249.03 26.1392C249.429 26.8339 249.984 27.3804 250.688 27.7602C251.402 28.1399 252.217 28.3345 253.152 28.3345C253.921 28.3345 254.597 28.2326 255.181 28.0381C255.755 27.8435 256.255 27.5842 256.672 27.26V27.2878Z" fill="#3A3939"/>
<path d="M262.135 28.3519C262.82 28.3519 263.46 28.2315 264.043 27.9907C264.627 27.7499 265.136 27.4257 265.571 26.9996C266.007 26.5735 266.34 26.0826 266.581 25.5083C266.822 24.934 266.942 24.3226 266.942 23.6557C266.942 22.9888 266.822 22.3867 266.581 21.8217C266.34 21.2567 266.007 20.7565 265.571 20.3304C265.136 19.9043 264.627 19.5708 264.043 19.33C263.46 19.0892 262.82 18.9688 262.135 18.9688C261.45 18.9688 260.81 19.0892 260.218 19.3207C259.625 19.5523 259.125 19.8858 258.689 20.3119C258.263 20.7379 257.92 21.2289 257.689 21.8032C257.457 22.3774 257.337 22.9888 257.337 23.6557C257.337 24.3226 257.457 24.934 257.689 25.5083C257.92 26.0826 258.263 26.5735 258.689 26.9996C259.125 27.4257 259.625 27.7591 260.218 27.9907C260.801 28.2315 261.44 28.3519 262.135 28.3519ZM259.569 23.665C259.569 23.2574 259.634 22.8869 259.764 22.5534C259.893 22.22 260.069 21.9421 260.301 21.7013C260.533 21.4604 260.801 21.2844 261.116 21.164C261.431 21.0436 261.774 20.9788 262.135 20.9788C262.626 20.9788 263.071 21.0899 263.45 21.3122C263.839 21.5345 264.145 21.8495 264.367 22.2478C264.59 22.6553 264.701 23.1277 264.701 23.665C264.701 24.0725 264.636 24.443 264.516 24.7765C264.386 25.11 264.21 25.3878 263.978 25.6287C263.747 25.8695 263.478 26.0455 263.163 26.1659C262.848 26.2863 262.506 26.3512 262.144 26.3512C261.653 26.3512 261.218 26.24 260.829 26.0177C260.44 25.7954 260.134 25.4805 259.912 25.0822C259.69 24.6746 259.578 24.2022 259.578 23.665H259.569Z" fill="#3A3939"/>
<path d="M278.79 28.1578V19.1637H276.752L273.909 24.1193L270.926 19.1637H268.879V28.1578H270.833L270.796 22.6372L273.121 26.472H274.548L276.752 22.6835L276.724 28.1578H278.79Z" fill="#3A3939"/>
<path d="M291.211 28.1578V19.1637H289.164L286.329 24.1193L283.347 19.1637H281.291V28.1578H283.245L283.217 22.6372L285.542 26.472H286.959L289.173 22.6835L289.136 28.1578H291.211Z" fill="#3A3939"/>
<path d="M300.038 21.0162V19.1637H293.711V28.1578H300.084V26.2868H295.842V24.3972H299.362V22.6835H295.842V21.0162H300.038Z" fill="#3A3939"/>
<path d="M307.682 24.675L303.986 19.1637H301.874V28.1578H303.94V22.5724L307.645 28.1578H309.757V19.1637H307.682V24.675Z" fill="#3A3939"/>
<path d="M317.26 27.8338C317.835 27.6208 318.325 27.3151 318.742 26.9168C319.159 26.5185 319.474 26.0461 319.706 25.4903C319.928 24.9346 320.039 24.3232 320.039 23.6563C320.039 22.7671 319.845 21.989 319.446 21.3128C319.048 20.6366 318.501 20.1087 317.797 19.7289C317.093 19.3491 316.278 19.1546 315.343 19.1546H312.258V28.1487H315.343C316.047 28.1487 316.686 28.0376 317.26 27.8245V27.8338ZM314.389 26.1758V21.1461H315.232C315.741 21.1461 316.186 21.2387 316.575 21.4332C316.964 21.6277 317.26 21.9056 317.473 22.2854C317.686 22.6559 317.797 23.1191 317.797 23.6563C317.797 24.0639 317.733 24.4251 317.612 24.74C317.492 25.055 317.316 25.3143 317.084 25.5274C316.853 25.7404 316.584 25.9071 316.269 26.009C315.954 26.1202 315.611 26.1665 315.222 26.1665H314.379L314.389 26.1758Z" fill="#3A3939"/>
<path d="M324.141 24.3972H327.661V22.6835H324.141V21.0162H328.337V19.1637H322.01V28.1578H328.383V26.2868H324.141V24.3972Z" fill="#3A3939"/>
<path d="M335.711 19.738C335.007 19.3582 334.192 19.1637 333.256 19.1637H330.172V28.1578H333.256C333.96 28.1578 334.599 28.0467 335.174 27.8336C335.748 27.6206 336.239 27.3149 336.656 26.9166C337.073 26.5183 337.388 26.0459 337.619 25.4902C337.841 24.9344 337.953 24.3231 337.953 23.6561C337.953 22.7669 337.758 21.9888 337.36 21.3127C336.961 20.6365 336.415 20.1085 335.711 19.7287V19.738ZM335.535 24.7399C335.415 25.0548 335.239 25.3142 335.007 25.5272C334.775 25.7403 334.507 25.907 334.192 26.0089C333.877 26.12 333.534 26.1663 333.145 26.1663H332.302V21.1367H333.145C333.655 21.1367 334.099 21.2293 334.488 21.4238C334.877 21.6183 335.174 21.8962 335.387 22.276C335.6 22.6465 335.711 23.1096 335.711 23.6469C335.711 24.0544 335.646 24.4157 335.526 24.7306L335.535 24.7399Z" fill="#3A3939"/>
<path d="M233.829 33.8456L233.347 33.7067C233.134 33.6418 232.958 33.577 232.829 33.5307C232.699 33.4844 232.616 33.4195 232.56 33.3547C232.505 33.2898 232.477 33.2157 232.477 33.1324C232.477 33.0212 232.514 32.9193 232.588 32.836C232.662 32.7526 232.764 32.6878 232.884 32.6415C233.005 32.5951 233.162 32.5766 233.338 32.5766C233.514 32.5766 233.69 32.5951 233.857 32.6415C234.024 32.6878 234.19 32.7433 234.339 32.8267C234.487 32.9101 234.607 32.9934 234.709 33.1046L235.348 32.1598C235.135 31.9468 234.839 31.7893 234.487 31.6689C234.125 31.5484 233.746 31.4929 233.329 31.4929C233.023 31.4929 232.745 31.5392 232.495 31.6226C232.245 31.7059 232.014 31.8263 231.828 31.9745C231.643 32.1227 231.495 32.308 231.393 32.5118C231.291 32.7156 231.236 32.9471 231.236 33.1972C231.236 33.5863 231.356 33.9105 231.606 34.1791C231.856 34.4477 232.264 34.67 232.829 34.8182L233.301 34.9479C233.635 35.0405 233.857 35.1331 233.977 35.2258C234.098 35.3184 234.163 35.4388 234.163 35.5778C234.163 35.7537 234.079 35.8834 233.903 35.9761C233.736 36.0687 233.514 36.115 233.246 36.115C233.051 36.115 232.856 36.0872 232.653 36.0409C232.449 35.9946 232.264 35.9205 232.078 35.8371C231.893 35.7537 231.754 35.6426 231.634 35.5222L231.013 36.4948C231.282 36.7263 231.615 36.9023 232.014 37.032C232.412 37.1524 232.81 37.2173 233.227 37.2173C233.672 37.2173 234.061 37.1432 234.385 36.995C234.709 36.8468 234.959 36.643 235.144 36.3744C235.32 36.1057 235.413 35.8001 235.413 35.4573C235.413 35.059 235.283 34.7348 235.033 34.4847C234.783 34.2347 234.376 34.0309 233.811 33.8641L233.829 33.8456Z" fill="#3A3939"/>
<path d="M240.008 34.8732C240.008 35.2437 239.916 35.5216 239.73 35.7068C239.545 35.8921 239.295 35.9755 238.962 35.9755C238.628 35.9755 238.378 35.8828 238.193 35.7068C238.008 35.5216 237.915 35.2437 237.915 34.8732V31.5942H236.609V34.8269C236.609 35.29 236.702 35.6976 236.878 36.0588C237.054 36.4201 237.322 36.6979 237.665 36.9017C238.008 37.1055 238.443 37.2074 238.962 37.2074C239.48 37.2074 239.906 37.1055 240.258 36.9017C240.61 36.6979 240.87 36.4108 241.046 36.0588C241.222 35.6976 241.314 35.29 241.314 34.8361V31.6034H239.999V34.8824L240.008 34.8732Z" fill="#3A3939"/>
<path d="M246.334 31.8072C246.019 31.659 245.649 31.5942 245.241 31.5942H243.037V37.0962H244.343V35.2344H245.213C245.667 35.2344 246.056 35.1603 246.371 35.0214C246.686 34.8824 246.936 34.6787 247.103 34.4008C247.27 34.1322 247.353 33.7987 247.353 33.4189C247.353 33.0392 247.26 32.7057 247.075 32.4371C246.89 32.1685 246.64 31.9554 246.325 31.8165L246.334 31.8072ZM245.815 33.9654C245.658 34.0766 245.445 34.1322 245.176 34.1322H244.343V32.715H245.186C245.445 32.715 245.658 32.7705 245.815 32.8817C245.973 32.9928 246.056 33.1781 246.056 33.4375C246.056 33.6968 245.982 33.8635 245.825 33.9747L245.815 33.9654Z" fill="#3A3939"/>
<path d="M251.826 31.8072C251.511 31.659 251.141 31.5942 250.733 31.5942H248.529V37.0962H249.835V35.2344H250.706C251.159 35.2344 251.548 35.1603 251.863 35.0214C252.178 34.8824 252.428 34.6787 252.595 34.4008C252.762 34.1322 252.845 33.7987 252.845 33.4189C252.845 33.0392 252.753 32.7057 252.567 32.4371C252.382 32.1685 252.132 31.9554 251.817 31.8165L251.826 31.8072ZM251.308 33.9654C251.15 34.0766 250.937 34.1322 250.669 34.1322H249.835V32.715H250.678C250.937 32.715 251.15 32.7705 251.308 32.8817C251.465 32.9928 251.548 33.1781 251.548 33.4375C251.548 33.6968 251.474 33.8635 251.317 33.9747L251.308 33.9654Z" fill="#3A3939"/>
<path d="M255.327 31.5851H254.021V37.0871H257.531V35.8922H255.327V31.5851Z" fill="#3A3939"/>
<path d="M260.08 34.7807H262.229V33.7433H260.08V32.7151H262.646V31.5851H258.774V37.0871H262.674V35.9386H260.08V34.7807Z" fill="#3A3939"/>
<path d="M267.053 34.614L265.229 31.5851H263.978V37.0871H265.173L265.154 33.7155L266.572 36.0497H267.442L268.795 33.7433L268.776 37.0871H270.036V31.5851H268.795L267.053 34.614Z" fill="#3A3939"/>
<path d="M273.084 34.7807H275.233V33.7433H273.084V32.7151H275.641V31.5851H271.778V37.0871H275.678V35.9386H273.084V34.7807Z" fill="#3A3939"/>
<path d="M280.533 34.9567L278.273 31.5851H276.985V37.0871H278.245V33.6692L280.514 37.0871H281.802V31.5851H280.533V34.9567Z" fill="#3A3939"/>
<path d="M282.968 32.78H284.432V37.0871H285.747V32.78H287.211V31.5851H282.968V32.78Z" fill="#3A3939"/>
<path d="M294.918 35.8182C294.677 35.8923 294.436 35.9294 294.186 35.9294C293.843 35.9294 293.547 35.8645 293.306 35.7348C293.065 35.6052 292.871 35.4292 292.741 35.1883C292.612 34.9475 292.547 34.6604 292.547 34.3362C292.547 34.0861 292.584 33.873 292.658 33.6692C292.732 33.4655 292.834 33.308 292.982 33.1691C293.13 33.0301 293.288 32.9282 293.492 32.8449C293.695 32.7615 293.918 32.7337 294.177 32.7337C294.436 32.7337 294.668 32.7708 294.881 32.8449C295.094 32.919 295.279 33.0394 295.437 33.1968L296.085 32.1316C295.835 31.9186 295.548 31.7519 295.242 31.6407C294.936 31.5295 294.547 31.4647 294.084 31.4647C293.658 31.4647 293.269 31.5388 292.917 31.6777C292.565 31.8167 292.26 32.0205 292 32.2706C291.741 32.5299 291.537 32.8356 291.398 33.1876C291.259 33.5396 291.185 33.9286 291.185 34.3547C291.185 34.9382 291.305 35.4384 291.546 35.8645C291.787 36.2906 292.13 36.6241 292.565 36.8556C293.001 37.0872 293.501 37.2076 294.075 37.2076C294.547 37.2076 294.955 37.152 295.316 37.0316C295.678 36.9112 295.974 36.7537 296.224 36.5592L295.622 35.4662C295.409 35.633 295.177 35.7534 294.936 35.8275L294.918 35.8182Z" fill="#3A3939"/>
<path d="M301.856 32.2984C301.588 32.039 301.282 31.8352 300.921 31.687C300.56 31.5388 300.17 31.4647 299.754 31.4647C299.337 31.4647 298.939 31.5388 298.587 31.6777C298.225 31.826 297.92 32.0205 297.651 32.2798C297.392 32.5392 297.188 32.8449 297.04 33.1876C296.891 33.5396 296.817 33.9101 296.817 34.3269C296.817 34.7437 296.891 35.1142 297.04 35.457C297.188 35.8089 297.392 36.1054 297.651 36.3647C297.91 36.6241 298.225 36.8278 298.587 36.9761C298.948 37.1243 299.337 37.1891 299.754 37.1891C300.17 37.1891 300.569 37.115 300.921 36.9761C301.282 36.8278 301.588 36.6241 301.856 36.3647C302.125 36.1054 302.329 35.7997 302.468 35.457C302.607 35.1142 302.69 34.7345 302.69 34.3269C302.69 33.9193 302.616 33.5488 302.468 33.2061C302.319 32.8634 302.116 32.5577 301.856 32.2891V32.2984ZM301.208 35.0123C301.134 35.2161 301.023 35.3921 300.884 35.5311C300.745 35.6793 300.578 35.7812 300.384 35.8645C300.189 35.9479 299.985 35.9757 299.763 35.9757C299.467 35.9757 299.198 35.9108 298.957 35.7719C298.716 35.6329 298.531 35.4477 298.401 35.1976C298.262 34.9475 298.198 34.6604 298.198 34.3269C298.198 34.0768 298.235 33.8452 298.318 33.6507C298.401 33.4469 298.503 33.2802 298.642 33.132C298.781 32.9838 298.948 32.8819 299.142 32.7985C299.337 32.7152 299.541 32.6874 299.763 32.6874C300.069 32.6874 300.337 32.7522 300.569 32.8912C300.8 33.0301 300.986 33.2154 301.125 33.4655C301.264 33.7156 301.328 34.0027 301.328 34.3362C301.328 34.5863 301.291 34.8086 301.208 35.0123Z" fill="#3A3939"/>
<path d="M307.162 34.614L305.337 31.5851H304.087V37.0871H305.282L305.263 33.7155L306.68 36.0497H307.551L308.904 33.7433L308.885 37.0871H310.145V31.5851H308.894L307.162 34.614Z" fill="#3A3939"/>
<path d="M315.184 31.8072C314.869 31.659 314.498 31.5942 314.091 31.5942H311.886V37.0962H313.192V35.2344H314.063C314.517 35.2344 314.906 35.1603 315.221 35.0214C315.536 34.8824 315.786 34.6787 315.953 34.4008C316.119 34.1322 316.203 33.7987 316.203 33.4189C316.203 33.0392 316.11 32.7057 315.925 32.4371C315.74 32.1685 315.489 31.9554 315.175 31.8165L315.184 31.8072ZM314.665 33.9654C314.508 34.0766 314.295 34.1322 314.026 34.1322H313.192V32.715H314.035C314.295 32.715 314.508 32.7705 314.665 32.8817C314.823 32.9928 314.906 33.1781 314.906 33.4375C314.906 33.6968 314.832 33.8635 314.674 33.9747L314.665 33.9654Z" fill="#3A3939"/>
<path d="M318.491 31.5851L316.435 37.0871H317.861L318.241 35.9756H320.214L320.603 37.0871H322.076L320.001 31.5851H318.491ZM318.537 34.8826L319.223 32.9837L319.917 34.8826H318.546H318.537Z" fill="#3A3939"/>
<path d="M326.733 34.9567L324.473 31.5851H323.186V37.0871H324.445V33.6692L326.715 37.0871H328.002V31.5851H326.733V34.9567Z" fill="#3A3939"/>
<path d="M331.662 33.5395L330.513 31.5851H329.05L330.986 34.79V37.0871H332.292V34.7992L334.218 31.5851H332.792L331.662 33.5395Z" fill="#3A3939"/>
<path d="M338.127 33.2894L337.775 32.2242L336.802 32.6317L336.904 31.5851H335.765L335.867 32.6317L334.894 32.2242L334.551 33.2894L335.561 33.5488L334.885 34.3361L335.792 34.9752L336.33 34.0675L336.867 34.966L337.793 34.3361L337.108 33.5395L338.127 33.2894Z" fill="#3A3939"/>
<path d="M12.7265 12.6247L18.6269 12.6618L18.6455 16.0704L21.1279 12.5691C21.1279 12.5691 27.6303 12.5691 28.075 12.5691C28.7974 12.5784 29.5663 12.81 30.2702 13.3657C30.9742 13.9122 31.1872 14.6069 31.2336 15.3757C31.215 15.0145 31.2336 30.789 31.2336 30.789H25.0646V18.803C25.0646 18.803 25.1757 17.9415 24.5736 17.4506C24.0364 17.0153 23.6103 17.0338 23.2027 17.0338H18.6825V30.7241H12.7173V12.6247H12.7265Z" fill="#3A3939"/>
<path d="M51.8434 31.0213H45.8782L45.9245 27.5755L43.4421 31.0769C43.4421 31.0769 36.9396 31.0769 36.4857 31.0769C35.7632 31.0583 34.9944 30.836 34.2812 30.2803C33.5772 29.7338 33.3734 29.0391 33.3179 28.2703C33.3457 28.6315 33.3179 12.8663 33.3179 12.8663H39.4961V24.8523C39.4961 24.8523 39.385 25.7137 39.9871 26.2047C40.5336 26.64 40.9504 26.6122 41.3672 26.6122H45.8782V12.9126H51.8434V31.0213Z" fill="#3A3939"/>
<path d="M117.414 12.9127H111.449V31.0214H117.414V12.9127Z" fill="#3A3939"/>
<path d="M128.334 16.636L131.474 12.8383C131.474 12.8383 136.68 12.7549 137.125 12.7642C137.847 12.7827 138.616 13.005 139.32 13.5515C140.024 14.098 140.237 14.7927 140.283 15.5615C140.256 15.2003 140.283 30.9655 140.283 30.9655H134.105V18.9795C134.105 18.9795 134.216 18.118 133.614 17.6271C133.077 17.1918 132.66 17.2103 132.243 17.2103C131.826 17.2103 128.288 17.2103 128.288 17.2103L128.325 16.6267L128.334 16.636Z" fill="#3A3939"/>
<path d="M53.6035 12.8381H72.7497L69.7393 17.5621H65.1727V30.9931H58.9944V17.5621H53.6035V12.8381Z" fill="#3A3939"/>
<path d="M161.673 12.736H168.101L170.648 16.5152L173.288 12.736H179.782L173.965 21.4523L180.402 30.8911H173.918L170.695 26.2226L167.638 30.8911H161.052L167.434 21.3967L161.673 12.736Z" fill="#3A3939"/>
<path d="M93.4784 17.6177L96.1739 12.8937H105.251C105.928 12.8937 107.623 13.1252 108.401 14.0608C109.179 14.9963 109.503 15.8022 109.503 16.6266V30.9931H103.64L103.621 28.2143L101.407 30.9746C101.407 30.9746 97.4706 31.0209 96.7945 30.9839C95.5996 30.9375 92.4502 30.3169 92.3298 26.5748C92.2094 22.7956 92.7281 21.9434 94.1268 20.8967C94.8678 20.3409 96.0257 20.1001 97.202 20.0908C99.1379 20.0723 102.704 20.0908 102.704 20.0908C102.704 20.0908 103.834 19.8871 103.723 18.7941C103.695 18.5347 103.742 17.5899 102.908 17.5992C102.046 17.6177 93.4599 17.5992 93.4599 17.5992L93.4784 17.6177ZM98.9527 23.6941C98.4803 23.7496 98.082 24.2035 98.082 24.8426C98.082 25.4818 98.1468 26.0839 98.8415 26.3062C99.4436 26.4914 103.39 26.3525 103.39 26.3525V23.657C103.39 23.657 99.4621 23.6477 98.9527 23.7033V23.6941Z" fill="#3A3939"/>
<path d="M73.4345 30.9936V12.9034C73.4345 12.9034 84.5962 12.8385 86.8563 12.8941C89.9593 12.9775 91.5155 16.6919 91.5803 19.7949C91.6359 22.4533 90.793 24.0002 89.6259 25.1488C88.8478 25.9268 87.6529 26.8068 87.6529 26.8068L93.155 35.0043L94.3962 33.1333H100.102L96.1561 40.1915L101.084 48H94.8315L93.2476 45.5917L91.7933 47.9815H85.05L89.8204 40.5157L79.4368 24.3244L79.409 31.0028H73.416L73.4345 30.9936ZM79.409 17.3588V22.6478C79.409 22.6478 83.3828 22.6571 84.096 22.6478C84.8092 22.6386 85.8744 22.6108 85.9578 20.0172C85.9856 19.0075 85.7633 17.3958 84.2071 17.3588C83.4105 17.3402 79.409 17.3588 79.409 17.3588Z" fill="#3A3939"/>
<path d="M116.979 16.6726L120.045 12.986C120.045 12.986 125.251 12.9026 125.696 12.9119C126.418 12.9304 127.178 13.1527 127.891 13.6992C128.595 14.2457 128.808 14.9497 128.854 15.7093C128.826 15.348 128.854 31.1132 128.854 31.1132H122.685V19.1272C122.685 19.1272 122.796 18.2658 122.194 17.7749C121.648 17.3395 121.231 17.358 120.823 17.358C119.851 17.358 116.868 17.3117 116.868 17.3117L116.989 16.6541L116.979 16.6726Z" fill="#3A3939"/>
<path d="M143.294 17.5621L145.989 12.8381H155.067C155.743 12.8381 157.438 13.0696 158.216 14.0052C158.994 14.9407 159.318 15.7373 159.318 16.571V30.9375H153.455L153.436 28.168L151.222 30.9283C151.222 30.9283 147.286 30.9653 146.61 30.9375C145.415 30.8819 142.265 30.2706 142.154 26.5284C142.034 22.7585 142.543 21.8971 143.951 20.8504C144.692 20.2946 145.841 20.0538 147.026 20.0445C148.953 20.0352 152.519 20.0445 152.519 20.0445C152.519 20.0445 153.649 19.8407 153.547 18.7477C153.529 18.4884 153.557 17.5436 152.732 17.5528C151.88 17.5713 143.294 17.5528 143.294 17.5528V17.5621ZM148.759 23.6385C148.286 23.694 147.888 24.1479 147.888 24.787C147.888 25.4262 147.953 26.0283 148.647 26.2506C149.25 26.4358 153.195 26.2969 153.195 26.2969V23.6014C153.195 23.6014 149.268 23.5921 148.759 23.6477V23.6385Z" fill="#3A3939"/>
<path d="M102.725 47.8145V38.5517H104.29V46.2861H107.069V47.8145H102.725Z" fill="#3A3939"/>
<path d="M109.274 38.5517H111.21L113.266 47.8145H111.627L111.266 45.86H109.2L108.839 47.8145H107.199L109.256 38.5517H109.274ZM109.487 44.3317H111.006L110.256 40.1727H110.237L109.487 44.3317Z" fill="#3A3939"/>
<path d="M113.812 38.5517H116.433C117.712 38.5517 118.647 39.126 118.647 40.8952C118.647 41.8956 118.24 42.6644 117.471 42.9238V42.9515C118.332 43.0905 118.888 43.8778 118.888 45.1005C118.888 46.5548 118.286 47.8145 116.461 47.8145H113.821V38.5517H113.812ZM115.377 42.3587H115.831C116.693 42.3587 117.082 42.0067 117.082 41.136C117.082 40.2653 116.721 39.9319 115.952 39.9319H115.387V42.3587H115.377ZM115.377 46.4436H115.989C116.739 46.4436 117.249 46.1194 117.249 45.0449C117.249 43.9704 116.739 43.6555 116.054 43.6555H115.377V46.4436Z" fill="#3A3939"/>
<path d="M122.344 38.3758C124.696 38.3758 124.983 40.3766 124.983 43.1832C124.983 45.9898 124.687 47.9998 122.344 47.9998C120 47.9998 119.704 45.9991 119.704 43.1832C119.704 40.3673 120 38.3758 122.344 38.3758ZM122.344 46.6197C123.27 46.6197 123.427 45.6749 123.427 43.1832C123.427 40.6915 123.27 39.7467 122.344 39.7467C121.417 39.7467 121.269 40.71 121.269 43.1832C121.269 45.6563 121.417 46.6197 122.344 46.6197Z" fill="#3A3939"/>
<path d="M125.908 38.5517H128.807C130.095 38.5517 130.873 39.3576 130.873 40.9415C130.873 42.1735 130.465 43.0071 129.576 43.2202V43.2479C130.641 43.4147 130.808 44.1187 130.827 46.0824C130.836 47.0549 130.882 47.5644 131.179 47.7404V47.8145H129.484C129.335 47.5551 129.298 47.2032 129.289 46.8419L129.243 45.0635C129.224 44.341 128.946 43.8963 128.317 43.8963H127.483V47.8145H125.917V38.5517H125.908ZM127.474 42.5996H128.122C128.872 42.5996 129.298 42.2105 129.298 41.2101C129.298 40.3487 128.919 39.9226 128.205 39.9226H127.464V42.5996H127.474Z" fill="#3A3939"/>
<path d="M133.476 38.5517H135.412L137.469 47.8145H135.838L135.477 45.86H133.411L133.059 47.8145H131.429L133.486 38.5517H133.476ZM133.68 44.3317H135.199L134.449 40.1727H134.421L133.671 44.3317H133.68Z" fill="#3A3939"/>
<path d="M141.961 38.5517V40.0801H140.266V47.8145H138.691V40.0801H136.996V38.5517H141.961Z" fill="#3A3939"/>
<path d="M145.112 38.3758C147.464 38.3758 147.751 40.3766 147.751 43.1832C147.751 45.9898 147.455 47.9998 145.112 47.9998C142.768 47.9998 142.472 45.9991 142.472 43.1832C142.472 40.3673 142.759 38.3758 145.112 38.3758ZM145.112 46.6197C146.029 46.6197 146.186 45.6749 146.186 43.1832C146.186 40.6915 146.029 39.7467 145.112 39.7467C144.195 39.7467 144.037 40.71 144.037 43.1832C144.037 45.6563 144.195 46.6197 145.112 46.6197Z" fill="#3A3939"/>
<path d="M148.686 38.5517H151.576C152.864 38.5517 153.642 39.3576 153.642 40.9415C153.642 42.1735 153.225 43.0071 152.345 43.2202V43.2479C153.41 43.4147 153.577 44.1187 153.595 46.0824C153.605 47.0549 153.651 47.5644 153.947 47.7404V47.8145H152.252C152.095 47.5551 152.058 47.2032 152.048 46.8419L152.011 45.0635C151.993 44.341 151.724 43.8963 151.085 43.8963H150.251V47.8145H148.686V38.5517ZM150.251 42.5996H150.9C151.65 42.5996 152.076 42.2105 152.076 41.2101C152.076 40.3487 151.696 39.9226 150.983 39.9226H150.242V42.5996H150.251Z" fill="#3A3939"/>
<path d="M154.81 47.8145V38.5517H156.375V47.8145H154.81Z" fill="#3A3939"/>
<path d="M161.885 38.551V40.0794H159.106V42.2561H161.719V43.7845H159.106V46.2762H161.987V47.8045H157.541V38.5417H161.885V38.551Z" fill="#3A3939"/>
<path d="M164.035 44.9246V45.2025C164.035 46.0732 164.239 46.6289 165.063 46.6289C165.545 46.6289 165.999 46.2677 165.999 45.4896C165.999 44.6467 165.638 44.3318 164.6 43.9057C163.211 43.3314 162.572 42.6459 162.572 41.0991C162.572 39.3021 163.498 38.3758 164.971 38.3758C166.36 38.3758 167.379 39.089 167.379 40.8675V41.1269H165.878C165.878 40.2562 165.628 39.7467 165.026 39.7467C164.322 39.7467 164.137 40.2747 164.137 40.8212C164.137 41.3955 164.276 41.7475 164.943 42.0809L166.147 42.7015C167.323 43.3129 167.629 44.0261 167.629 45.1562C167.629 47.1199 166.629 47.9998 164.934 47.9998C163.239 47.9998 162.46 47.018 162.46 45.3044V44.9246H164.026H164.035Z" fill="#3A3939"/>
<path d="M184.291 12.736C185.828 12.736 187.06 13.9865 187.06 15.5519C187.06 17.1173 185.828 18.3863 184.281 18.3863C182.734 18.3863 181.484 17.1451 181.484 15.5519C181.484 13.9587 182.734 12.736 184.281 12.736H184.291ZM184.272 13.1714C183.031 13.1714 182.012 14.2366 182.012 15.5519C182.012 16.8672 183.031 17.9417 184.281 17.9417C185.532 17.951 186.532 16.8858 186.532 15.5612C186.532 14.2366 185.532 13.1714 184.281 13.1714H184.272ZM183.753 17.1914H183.253V14.0421C183.512 14.005 183.763 13.968 184.142 13.968C184.615 13.968 184.93 14.0699 185.115 14.2088C185.3 14.3478 185.402 14.5608 185.402 14.8572C185.402 15.274 185.124 15.5241 184.791 15.626V15.6538C185.069 15.7001 185.254 15.9502 185.319 16.4134C185.393 16.9043 185.467 17.0895 185.522 17.1914H184.994C184.92 17.0895 184.846 16.8024 184.781 16.3856C184.707 15.9873 184.504 15.8298 184.105 15.8298H183.753V17.1822V17.1914ZM183.753 15.45H184.115C184.531 15.45 184.883 15.3018 184.883 14.9128C184.883 14.6349 184.68 14.3663 184.115 14.3663C183.948 14.3663 183.837 14.3755 183.753 14.3941V15.4593V15.45Z" fill="#3A3939"/>
</svg>
